<?xml version="1.0" encoding="utf-8" standalone="no"?>
<!DOCTYPE svg PUBLIC "-//W3C//DTD SVG 1.1//EN"
  "http://www.w3.org/Graphics/SVG/1.1/DTD/svg11.dtd">
<!-- Created with matplotlib (http://matplotlib.org/) -->
<svg height="1296pt" version="1.1" viewBox="0 0 648 1296" width="648pt" xmlns="http://www.w3.org/2000/svg" xmlns:xlink="http://www.w3.org/1999/xlink">
 <defs>
  <style type="text/css">
*{stroke-linecap:butt;stroke-linejoin:round;}
  </style>
 </defs>
 <g id="figure_1">
  <g id="patch_1">
   <path d="M 0 1296 
L 648 1296 
L 648 0 
L 0 0 
z
" style="fill:#ffffff;"/>
  </g>
  <g id="axes_1">
   <g id="patch_2">
    <path d="M 36.8875 115.797222 
L 205.650309 115.797222 
L 205.650309 14.3 
L 36.8875 14.3 
z
" style="fill:#ffffff;"/>
   </g>
   <g id="patch_3">
    <path clip-path="url(#p997b579ab0)" d="M 44.558537 115.797222 
L 44.558537 114.723178 
L 49.672561 114.723178 
L 49.672561 115.797222 
L 54.786586 115.797222 
L 54.786586 115.797222 
L 59.90061 115.797222 
L 59.90061 110.426999 
L 65.014635 110.426999 
L 65.014635 108.278909 
L 70.128659 108.278909 
L 70.128659 107.204865 
L 75.242684 107.204865 
L 75.242684 100.760597 
L 80.356708 100.760597 
L 80.356708 86.798016 
L 85.470733 86.798016 
L 85.470733 68.539256 
L 90.584757 68.539256 
L 90.584757 62.094988 
L 95.698782 62.094988 
L 95.698782 56.724765 
L 100.812806 56.724765 
L 100.812806 27.725558 
L 105.926831 27.725558 
L 105.926831 38.466005 
L 111.040855 38.466005 
L 111.040855 23.42938 
L 116.15488 23.42938 
L 116.15488 19.133201 
L 121.268904 19.133201 
L 121.268904 33.095782 
L 126.382929 33.095782 
L 126.382929 42.762184 
L 131.496953 42.762184 
L 131.496953 52.428586 
L 136.610978 52.428586 
L 136.610978 48.132407 
L 141.725002 48.132407 
L 141.725002 48.132407 
L 146.839027 48.132407 
L 146.839027 66.391167 
L 151.953051 66.391167 
L 151.953051 82.501837 
L 157.067076 82.501837 
L 157.067076 100.760597 
L 162.1811 100.760597 
L 162.1811 102.908686 
L 167.295125 102.908686 
L 167.295125 103.982731 
L 172.409149 103.982731 
L 172.409149 109.352954 
L 177.523174 109.352954 
L 177.523174 112.575088 
L 182.637198 112.575088 
L 182.637198 111.501044 
L 187.751223 111.501044 
L 187.751223 114.723178 
L 192.865247 114.723178 
L 192.865247 114.723178 
L 197.979272 114.723178 
L 197.979272 115.797222 
L 192.865247 115.797222 
L 192.865247 115.797222 
L 187.751223 115.797222 
L 187.751223 115.797222 
L 182.637198 115.797222 
L 182.637198 115.797222 
L 177.523174 115.797222 
L 177.523174 115.797222 
L 172.409149 115.797222 
L 172.409149 115.797222 
L 167.295125 115.797222 
L 167.295125 115.797222 
L 162.1811 115.797222 
L 162.1811 115.797222 
L 157.067076 115.797222 
L 157.067076 115.797222 
L 151.953051 115.797222 
L 151.953051 115.797222 
L 146.839027 115.797222 
L 146.839027 115.797222 
L 141.725002 115.797222 
L 141.725002 115.797222 
L 136.610978 115.797222 
L 136.610978 115.797222 
L 131.496953 115.797222 
L 131.496953 115.797222 
L 126.382929 115.797222 
L 126.382929 115.797222 
L 121.268904 115.797222 
L 121.268904 115.797222 
L 116.15488 115.797222 
L 116.15488 115.797222 
L 111.040855 115.797222 
L 111.040855 115.797222 
L 105.926831 115.797222 
L 105.926831 115.797222 
L 100.812806 115.797222 
L 100.812806 115.797222 
L 95.698782 115.797222 
L 95.698782 115.797222 
L 90.584757 115.797222 
L 90.584757 115.797222 
L 85.470733 115.797222 
L 85.470733 115.797222 
L 80.356708 115.797222 
L 80.356708 115.797222 
L 75.242684 115.797222 
L 75.242684 115.797222 
L 70.128659 115.797222 
L 70.128659 115.797222 
L 65.014635 115.797222 
L 65.014635 115.797222 
L 59.90061 115.797222 
L 59.90061 115.797222 
L 54.786586 115.797222 
L 54.786586 115.797222 
L 49.672561 115.797222 
L 49.672561 115.797222 
z
" style="opacity:0.5;"/>
   </g>
   <g id="matplotlib.axis_1">
    <g id="xtick_1">
     <g id="line2d_1">
      <defs>
       <path d="M 0 0 
L 0 3.5 
" id="mdac9d2ec14" style="stroke:#000000;stroke-width:0.8;"/>
      </defs>
      <g>
       <use style="stroke:#000000;stroke-width:0.8;" x="64.156529" xlink:href="#mdac9d2ec14" y="115.797222"/>
      </g>
     </g>
     <g id="text_1">
      <!-- 1.400 -->
      <defs>
       <path d="M 12.40625 8.296875 
L 28.515625 8.296875 
L 28.515625 63.921875 
L 10.984375 60.40625 
L 10.984375 69.390625 
L 28.421875 72.90625 
L 38.28125 72.90625 
L 38.28125 8.296875 
L 54.390625 8.296875 
L 54.390625 0 
L 12.40625 0 
z
" id="DejaVuSans-31"/>
       <path d="M 10.6875 12.40625 
L 21 12.40625 
L 21 0 
L 10.6875 0 
z
" id="DejaVuSans-2e"/>
       <path d="M 37.796875 64.3125 
L 12.890625 25.390625 
L 37.796875 25.390625 
z
M 35.203125 72.90625 
L 47.609375 72.90625 
L 47.609375 25.390625 
L 58.015625 25.390625 
L 58.015625 17.1875 
L 47.609375 17.1875 
L 47.609375 0 
L 37.796875 0 
L 37.796875 17.1875 
L 4.890625 17.1875 
L 4.890625 26.703125 
z
" id="DejaVuSans-34"/>
       <path d="M 31.78125 66.40625 
Q 24.171875 66.40625 20.328125 58.90625 
Q 16.5 51.421875 16.5 36.375 
Q 16.5 21.390625 20.328125 13.890625 
Q 24.171875 6.390625 31.78125 6.390625 
Q 39.453125 6.390625 43.28125 13.890625 
Q 47.125 21.390625 47.125 36.375 
Q 47.125 51.421875 43.28125 58.90625 
Q 39.453125 66.40625 31.78125 66.40625 
M 31.78125 74.21875 
Q 44.046875 74.21875 50.515625 64.515625 
Q 56.984375 54.828125 56.984375 36.375 
Q 56.984375 17.96875 50.515625 8.265625 
Q 44.046875 -1.421875 31.78125 -1.421875 
Q 19.53125 -1.421875 13.0625 8.265625 
Q 6.59375 17.96875 6.59375 36.375 
Q 6.59375 54.828125 13.0625 64.515625 
Q 19.53125 74.21875 31.78125 74.21875 
" id="DejaVuSans-30"/>
      </defs>
      <g transform="translate(49.842467 130.39566)scale(0.1 -0.1)">
       <use xlink:href="#DejaVuSans-31"/>
       <use x="63.623047" xlink:href="#DejaVuSans-2e"/>
       <use x="95.410156" xlink:href="#DejaVuSans-34"/>
       <use x="159.033203" xlink:href="#DejaVuSans-30"/>
       <use x="222.65625" xlink:href="#DejaVuSans-30"/>
      </g>
     </g>
    </g>
    <g id="xtick_2">
     <g id="line2d_2">
      <g>
       <use style="stroke:#000000;stroke-width:0.8;" x="107.116443" xlink:href="#mdac9d2ec14" y="115.797222"/>
      </g>
     </g>
     <g id="text_2">
      <!-- 1.425 -->
      <defs>
       <path d="M 19.1875 8.296875 
L 53.609375 8.296875 
L 53.609375 0 
L 7.328125 0 
L 7.328125 8.296875 
Q 12.9375 14.109375 22.625 23.890625 
Q 32.328125 33.6875 34.8125 36.53125 
Q 39.546875 41.84375 41.421875 45.53125 
Q 43.3125 49.21875 43.3125 52.78125 
Q 43.3125 58.59375 39.234375 62.25 
Q 35.15625 65.921875 28.609375 65.921875 
Q 23.96875 65.921875 18.8125 64.3125 
Q 13.671875 62.703125 7.8125 59.421875 
L 7.8125 69.390625 
Q 13.765625 71.78125 18.9375 73 
Q 24.125 74.21875 28.421875 74.21875 
Q 39.75 74.21875 46.484375 68.546875 
Q 53.21875 62.890625 53.21875 53.421875 
Q 53.21875 48.921875 51.53125 44.890625 
Q 49.859375 40.875 45.40625 35.40625 
Q 44.1875 33.984375 37.640625 27.21875 
Q 31.109375 20.453125 19.1875 8.296875 
" id="DejaVuSans-32"/>
       <path d="M 10.796875 72.90625 
L 49.515625 72.90625 
L 49.515625 64.59375 
L 19.828125 64.59375 
L 19.828125 46.734375 
Q 21.96875 47.46875 24.109375 47.828125 
Q 26.265625 48.1875 28.421875 48.1875 
Q 40.625 48.1875 47.75 41.5 
Q 54.890625 34.8125 54.890625 23.390625 
Q 54.890625 11.625 47.5625 5.09375 
Q 40.234375 -1.421875 26.90625 -1.421875 
Q 22.3125 -1.421875 17.546875 -0.640625 
Q 12.796875 0.140625 7.71875 1.703125 
L 7.71875 11.625 
Q 12.109375 9.234375 16.796875 8.0625 
Q 21.484375 6.890625 26.703125 6.890625 
Q 35.15625 6.890625 40.078125 11.328125 
Q 45.015625 15.765625 45.015625 23.390625 
Q 45.015625 31 40.078125 35.4375 
Q 35.15625 39.890625 26.703125 39.890625 
Q 22.75 39.890625 18.8125 39.015625 
Q 14.890625 38.140625 10.796875 36.28125 
z
" id="DejaVuSans-35"/>
      </defs>
      <g transform="translate(92.802381 130.39566)scale(0.1 -0.1)">
       <use xlink:href="#DejaVuSans-31"/>
       <use x="63.623047" xlink:href="#DejaVuSans-2e"/>
       <use x="95.410156" xlink:href="#DejaVuSans-34"/>
       <use x="159.033203" xlink:href="#DejaVuSans-32"/>
       <use x="222.65625" xlink:href="#DejaVuSans-35"/>
      </g>
     </g>
    </g>
    <g id="xtick_3">
     <g id="line2d_3">
      <g>
       <use style="stroke:#000000;stroke-width:0.8;" x="150.076357" xlink:href="#mdac9d2ec14" y="115.797222"/>
      </g>
     </g>
     <g id="text_3">
      <!-- 1.450 -->
      <g transform="translate(135.762294 130.39566)scale(0.1 -0.1)">
       <use xlink:href="#DejaVuSans-31"/>
       <use x="63.623047" xlink:href="#DejaVuSans-2e"/>
       <use x="95.410156" xlink:href="#DejaVuSans-34"/>
       <use x="159.033203" xlink:href="#DejaVuSans-35"/>
       <use x="222.65625" xlink:href="#DejaVuSans-30"/>
      </g>
     </g>
    </g>
    <g id="xtick_4">
     <g id="line2d_4">
      <g>
       <use style="stroke:#000000;stroke-width:0.8;" x="193.036271" xlink:href="#mdac9d2ec14" y="115.797222"/>
      </g>
     </g>
     <g id="text_4">
      <!-- 1.475 -->
      <defs>
       <path d="M 8.203125 72.90625 
L 55.078125 72.90625 
L 55.078125 68.703125 
L 28.609375 0 
L 18.3125 0 
L 43.21875 64.59375 
L 8.203125 64.59375 
z
" id="DejaVuSans-37"/>
      </defs>
      <g transform="translate(178.722208 130.39566)scale(0.1 -0.1)">
       <use xlink:href="#DejaVuSans-31"/>
       <use x="63.623047" xlink:href="#DejaVuSans-2e"/>
       <use x="95.410156" xlink:href="#DejaVuSans-34"/>
       <use x="159.033203" xlink:href="#DejaVuSans-37"/>
       <use x="222.65625" xlink:href="#DejaVuSans-35"/>
      </g>
     </g>
    </g>
    <g id="text_5">
     <!-- $d_s$ -->
     <defs>
      <path d="M 41.796875 8.203125 
Q 38.1875 3.46875 33.25 1.015625 
Q 28.328125 -1.421875 22.3125 -1.421875 
Q 14.109375 -1.421875 9.34375 4.171875 
Q 4.59375 9.765625 4.59375 19.484375 
Q 4.59375 27.59375 7.46875 34.9375 
Q 10.359375 42.28125 15.828125 48.09375 
Q 19.4375 51.953125 23.96875 53.96875 
Q 28.515625 56 33.5 56 
Q 38.765625 56 42.796875 53.453125 
Q 46.828125 50.921875 49.03125 46.1875 
L 54.890625 75.984375 
L 63.921875 75.984375 
L 49.125 0 
L 40.09375 0 
z
M 13.921875 21.09375 
Q 13.921875 14.015625 17.109375 10.0625 
Q 20.3125 6.109375 25.984375 6.109375 
Q 30.171875 6.109375 33.765625 8.125 
Q 37.359375 10.15625 40.09375 14.109375 
Q 42.96875 18.21875 44.625 23.578125 
Q 46.296875 28.953125 46.296875 34.1875 
Q 46.296875 40.96875 43.09375 44.765625 
Q 39.890625 48.578125 34.28125 48.578125 
Q 30.03125 48.578125 26.359375 46.578125 
Q 22.703125 44.578125 20.125 40.828125 
Q 17.28125 36.765625 15.59375 31.390625 
Q 13.921875 26.03125 13.921875 21.09375 
" id="DejaVuSans-Oblique-64"/>
      <path d="M 50 53.078125 
L 48.296875 44.578125 
Q 44.734375 46.53125 40.765625 47.5 
Q 36.8125 48.484375 32.625 48.484375 
Q 25.53125 48.484375 21.453125 46.0625 
Q 17.390625 43.65625 17.390625 39.5 
Q 17.390625 34.671875 26.859375 32.078125 
Q 27.59375 31.890625 27.9375 31.78125 
L 30.8125 30.90625 
Q 39.796875 28.421875 42.796875 25.6875 
Q 45.796875 22.953125 45.796875 18.21875 
Q 45.796875 9.515625 38.890625 4.046875 
Q 31.984375 -1.421875 20.796875 -1.421875 
Q 16.453125 -1.421875 11.671875 -0.578125 
Q 6.890625 0.25 1.125 2 
L 2.875 11.28125 
Q 7.8125 8.734375 12.59375 7.421875 
Q 17.390625 6.109375 21.78125 6.109375 
Q 28.375 6.109375 32.5 8.9375 
Q 36.625 11.765625 36.625 16.109375 
Q 36.625 20.796875 25.78125 23.6875 
L 24.859375 23.921875 
L 21.78125 24.703125 
Q 14.9375 26.515625 11.765625 29.46875 
Q 8.59375 32.421875 8.59375 37.015625 
Q 8.59375 45.75 15.15625 50.875 
Q 21.734375 56 33.015625 56 
Q 37.453125 56 41.671875 55.265625 
Q 45.90625 54.546875 50 53.078125 
" id="DejaVuSans-Oblique-73"/>
     </defs>
     <g transform="translate(116.118904 144.073785)scale(0.1 -0.1)">
      <use transform="translate(0 0.015625)" xlink:href="#DejaVuSans-Oblique-64"/>
      <use transform="translate(63.476562 -16.390625)scale(0.7)" xlink:href="#DejaVuSans-Oblique-73"/>
     </g>
    </g>
    <g id="text_6">
     <!-- 1e−2 -->
     <defs>
      <path d="M 56.203125 29.59375 
L 56.203125 25.203125 
L 14.890625 25.203125 
Q 15.484375 15.921875 20.484375 11.0625 
Q 25.484375 6.203125 34.421875 6.203125 
Q 39.59375 6.203125 44.453125 7.46875 
Q 49.3125 8.734375 54.109375 11.28125 
L 54.109375 2.78125 
Q 49.265625 0.734375 44.1875 -0.34375 
Q 39.109375 -1.421875 33.890625 -1.421875 
Q 20.796875 -1.421875 13.15625 6.1875 
Q 5.515625 13.8125 5.515625 26.8125 
Q 5.515625 40.234375 12.765625 48.109375 
Q 20.015625 56 32.328125 56 
Q 43.359375 56 49.78125 48.890625 
Q 56.203125 41.796875 56.203125 29.59375 
M 47.21875 32.234375 
Q 47.125 39.59375 43.09375 43.984375 
Q 39.0625 48.390625 32.421875 48.390625 
Q 24.90625 48.390625 20.390625 44.140625 
Q 15.875 39.890625 15.1875 32.171875 
z
" id="DejaVuSans-65"/>
      <path d="M 10.59375 35.5 
L 73.1875 35.5 
L 73.1875 27.203125 
L 10.59375 27.203125 
z
" id="DejaVuSans-2212"/>
     </defs>
     <g transform="translate(178.392496 143.073785)scale(0.1 -0.1)">
      <use xlink:href="#DejaVuSans-31"/>
      <use x="63.623047" xlink:href="#DejaVuSans-65"/>
      <use x="125.146484" xlink:href="#DejaVuSans-2212"/>
      <use x="208.935547" xlink:href="#DejaVuSans-32"/>
     </g>
    </g>
   </g>
   <g id="matplotlib.axis_2">
    <g id="ytick_1">
     <g id="line2d_5">
      <defs>
       <path d="M 0 0 
L -3.5 0 
" id="m982616b7bc" style="stroke:#000000;stroke-width:0.8;"/>
      </defs>
      <g>
       <use style="stroke:#000000;stroke-width:0.8;" x="36.8875" xlink:href="#m982616b7bc" y="115.797222"/>
      </g>
     </g>
     <g id="text_7">
      <!-- 0 -->
      <g transform="translate(23.525 119.596441)scale(0.1 -0.1)">
       <use xlink:href="#DejaVuSans-30"/>
      </g>
     </g>
    </g>
    <g id="ytick_2">
     <g id="line2d_6">
      <g>
       <use style="stroke:#000000;stroke-width:0.8;" x="36.8875" xlink:href="#m982616b7bc" y="94.316329"/>
      </g>
     </g>
     <g id="text_8">
      <!-- 20 -->
      <g transform="translate(17.1625 98.115547)scale(0.1 -0.1)">
       <use xlink:href="#DejaVuSans-32"/>
       <use x="63.623047" xlink:href="#DejaVuSans-30"/>
      </g>
     </g>
    </g>
    <g id="ytick_3">
     <g id="line2d_7">
      <g>
       <use style="stroke:#000000;stroke-width:0.8;" x="36.8875" xlink:href="#m982616b7bc" y="72.835435"/>
      </g>
     </g>
     <g id="text_9">
      <!-- 40 -->
      <g transform="translate(17.1625 76.634654)scale(0.1 -0.1)">
       <use xlink:href="#DejaVuSans-34"/>
       <use x="63.623047" xlink:href="#DejaVuSans-30"/>
      </g>
     </g>
    </g>
    <g id="ytick_4">
     <g id="line2d_8">
      <g>
       <use style="stroke:#000000;stroke-width:0.8;" x="36.8875" xlink:href="#m982616b7bc" y="51.354541"/>
      </g>
     </g>
     <g id="text_10">
      <!-- 60 -->
      <defs>
       <path d="M 33.015625 40.375 
Q 26.375 40.375 22.484375 35.828125 
Q 18.609375 31.296875 18.609375 23.390625 
Q 18.609375 15.53125 22.484375 10.953125 
Q 26.375 6.390625 33.015625 6.390625 
Q 39.65625 6.390625 43.53125 10.953125 
Q 47.40625 15.53125 47.40625 23.390625 
Q 47.40625 31.296875 43.53125 35.828125 
Q 39.65625 40.375 33.015625 40.375 
M 52.59375 71.296875 
L 52.59375 62.3125 
Q 48.875 64.0625 45.09375 64.984375 
Q 41.3125 65.921875 37.59375 65.921875 
Q 27.828125 65.921875 22.671875 59.328125 
Q 17.53125 52.734375 16.796875 39.40625 
Q 19.671875 43.65625 24.015625 45.921875 
Q 28.375 48.1875 33.59375 48.1875 
Q 44.578125 48.1875 50.953125 41.515625 
Q 57.328125 34.859375 57.328125 23.390625 
Q 57.328125 12.15625 50.6875 5.359375 
Q 44.046875 -1.421875 33.015625 -1.421875 
Q 20.359375 -1.421875 13.671875 8.265625 
Q 6.984375 17.96875 6.984375 36.375 
Q 6.984375 53.65625 15.1875 63.9375 
Q 23.390625 74.21875 37.203125 74.21875 
Q 40.921875 74.21875 44.703125 73.484375 
Q 48.484375 72.75 52.59375 71.296875 
" id="DejaVuSans-36"/>
      </defs>
      <g transform="translate(17.1625 55.15376)scale(0.1 -0.1)">
       <use xlink:href="#DejaVuSans-36"/>
       <use x="63.623047" xlink:href="#DejaVuSans-30"/>
      </g>
     </g>
    </g>
    <g id="ytick_5">
     <g id="line2d_9">
      <g>
       <use style="stroke:#000000;stroke-width:0.8;" x="36.8875" xlink:href="#m982616b7bc" y="29.873648"/>
      </g>
     </g>
     <g id="text_11">
      <!-- 80 -->
      <defs>
       <path d="M 31.78125 34.625 
Q 24.75 34.625 20.71875 30.859375 
Q 16.703125 27.09375 16.703125 20.515625 
Q 16.703125 13.921875 20.71875 10.15625 
Q 24.75 6.390625 31.78125 6.390625 
Q 38.8125 6.390625 42.859375 10.171875 
Q 46.921875 13.96875 46.921875 20.515625 
Q 46.921875 27.09375 42.890625 30.859375 
Q 38.875 34.625 31.78125 34.625 
M 21.921875 38.8125 
Q 15.578125 40.375 12.03125 44.71875 
Q 8.5 49.078125 8.5 55.328125 
Q 8.5 64.0625 14.71875 69.140625 
Q 20.953125 74.21875 31.78125 74.21875 
Q 42.671875 74.21875 48.875 69.140625 
Q 55.078125 64.0625 55.078125 55.328125 
Q 55.078125 49.078125 51.53125 44.71875 
Q 48 40.375 41.703125 38.8125 
Q 48.828125 37.15625 52.796875 32.3125 
Q 56.78125 27.484375 56.78125 20.515625 
Q 56.78125 9.90625 50.3125 4.234375 
Q 43.84375 -1.421875 31.78125 -1.421875 
Q 19.734375 -1.421875 13.25 4.234375 
Q 6.78125 9.90625 6.78125 20.515625 
Q 6.78125 27.484375 10.78125 32.3125 
Q 14.796875 37.15625 21.921875 38.8125 
M 18.3125 54.390625 
Q 18.3125 48.734375 21.84375 45.5625 
Q 25.390625 42.390625 31.78125 42.390625 
Q 38.140625 42.390625 41.71875 45.5625 
Q 45.3125 48.734375 45.3125 54.390625 
Q 45.3125 60.0625 41.71875 63.234375 
Q 38.140625 66.40625 31.78125 66.40625 
Q 25.390625 66.40625 21.84375 63.234375 
Q 18.3125 60.0625 18.3125 54.390625 
" id="DejaVuSans-38"/>
      </defs>
      <g transform="translate(17.1625 33.672867)scale(0.1 -0.1)">
       <use xlink:href="#DejaVuSans-38"/>
       <use x="63.623047" xlink:href="#DejaVuSans-30"/>
      </g>
     </g>
    </g>
   </g>
   <g id="line2d_10">
    <path clip-path="url(#p997b579ab0)" d="M 120.261863 115.797222 
L 120.261863 14.3 
" style="fill:none;stroke:#1f77b4;stroke-linecap:square;stroke-width:1.5;"/>
   </g>
   <g id="patch_4">
    <path d="M 36.8875 115.797222 
L 36.8875 14.3 
" style="fill:none;stroke:#000000;stroke-linecap:square;stroke-linejoin:miter;stroke-width:0.8;"/>
   </g>
   <g id="patch_5">
    <path d="M 205.650309 115.797222 
L 205.650309 14.3 
" style="fill:none;stroke:#000000;stroke-linecap:square;stroke-linejoin:miter;stroke-width:0.8;"/>
   </g>
   <g id="patch_6">
    <path d="M 36.8875 115.797222 
L 205.650309 115.797222 
" style="fill:none;stroke:#000000;stroke-linecap:square;stroke-linejoin:miter;stroke-width:0.8;"/>
   </g>
   <g id="patch_7">
    <path d="M 36.8875 14.3 
L 205.650309 14.3 
" style="fill:none;stroke:#000000;stroke-linecap:square;stroke-linejoin:miter;stroke-width:0.8;"/>
   </g>
  </g>
  <g id="axes_2">
   <g id="patch_8">
    <path d="M 250.912346 115.797222 
L 419.675154 115.797222 
L 419.675154 14.3 
L 250.912346 14.3 
z
" style="fill:#ffffff;"/>
   </g>
   <g id="patch_9">
    <path clip-path="url(#p08bd910618)" d="M 258.583382 115.797222 
L 258.583382 114.934151 
L 263.697407 114.934151 
L 263.697407 115.797222 
L 268.811431 115.797222 
L 268.811431 114.934151 
L 273.925456 114.934151 
L 273.925456 114.071079 
L 279.03948 114.071079 
L 279.03948 111.481864 
L 284.153505 111.481864 
L 284.153505 106.303434 
L 289.267529 106.303434 
L 289.267529 106.303434 
L 294.381554 106.303434 
L 294.381554 86.452787 
L 299.495578 86.452787 
L 299.495578 86.452787 
L 304.609603 86.452787 
L 304.609603 69.191355 
L 309.723627 69.191355 
L 309.723627 68.328283 
L 314.837652 68.328283 
L 314.837652 57.971424 
L 319.951676 57.971424 
L 319.951676 47.614564 
L 325.065701 47.614564 
L 325.065701 19.133201 
L 330.179725 19.133201 
L 330.179725 51.929923 
L 335.29375 51.929923 
L 335.29375 42.436135 
L 340.407775 42.436135 
L 340.407775 45.02535 
L 345.521799 45.02535 
L 345.521799 50.203779 
L 350.635824 50.203779 
L 350.635824 73.506713 
L 355.749848 73.506713 
L 355.749848 75.232856 
L 360.863873 75.232856 
L 360.863873 80.411286 
L 365.977897 80.411286 
L 365.977897 98.53579 
L 371.091922 98.53579 
L 371.091922 95.946575 
L 376.205946 95.946575 
L 376.205946 102.851148 
L 381.319971 102.851148 
L 381.319971 112.344936 
L 386.433995 112.344936 
L 386.433995 110.618793 
L 391.54802 110.618793 
L 391.54802 111.481864 
L 396.662044 111.481864 
L 396.662044 114.934151 
L 401.776069 114.934151 
L 401.776069 114.934151 
L 406.890093 114.934151 
L 406.890093 111.481864 
L 412.004118 111.481864 
L 412.004118 115.797222 
L 406.890093 115.797222 
L 406.890093 115.797222 
L 401.776069 115.797222 
L 401.776069 115.797222 
L 396.662044 115.797222 
L 396.662044 115.797222 
L 391.54802 115.797222 
L 391.54802 115.797222 
L 386.433995 115.797222 
L 386.433995 115.797222 
L 381.319971 115.797222 
L 381.319971 115.797222 
L 376.205946 115.797222 
L 376.205946 115.797222 
L 371.091922 115.797222 
L 371.091922 115.797222 
L 365.977897 115.797222 
L 365.977897 115.797222 
L 360.863873 115.797222 
L 360.863873 115.797222 
L 355.749848 115.797222 
L 355.749848 115.797222 
L 350.635824 115.797222 
L 350.635824 115.797222 
L 345.521799 115.797222 
L 345.521799 115.797222 
L 340.407775 115.797222 
L 340.407775 115.797222 
L 335.29375 115.797222 
L 335.29375 115.797222 
L 330.179725 115.797222 
L 330.179725 115.797222 
L 325.065701 115.797222 
L 325.065701 115.797222 
L 319.951676 115.797222 
L 319.951676 115.797222 
L 314.837652 115.797222 
L 314.837652 115.797222 
L 309.723627 115.797222 
L 309.723627 115.797222 
L 304.609603 115.797222 
L 304.609603 115.797222 
L 299.495578 115.797222 
L 299.495578 115.797222 
L 294.381554 115.797222 
L 294.381554 115.797222 
L 289.267529 115.797222 
L 289.267529 115.797222 
L 284.153505 115.797222 
L 284.153505 115.797222 
L 279.03948 115.797222 
L 279.03948 115.797222 
L 273.925456 115.797222 
L 273.925456 115.797222 
L 268.811431 115.797222 
L 268.811431 115.797222 
L 263.697407 115.797222 
L 263.697407 115.797222 
z
" style="opacity:0.5;"/>
   </g>
   <g id="matplotlib.axis_3">
    <g id="xtick_5">
     <g id="line2d_11">
      <g>
       <use style="stroke:#000000;stroke-width:0.8;" x="274.226347" xlink:href="#mdac9d2ec14" y="115.797222"/>
      </g>
     </g>
     <g id="text_12">
      <!-- 3.25 -->
      <defs>
       <path d="M 40.578125 39.3125 
Q 47.65625 37.796875 51.625 33 
Q 55.609375 28.21875 55.609375 21.1875 
Q 55.609375 10.40625 48.1875 4.484375 
Q 40.765625 -1.421875 27.09375 -1.421875 
Q 22.515625 -1.421875 17.65625 -0.515625 
Q 12.796875 0.390625 7.625 2.203125 
L 7.625 11.71875 
Q 11.71875 9.328125 16.59375 8.109375 
Q 21.484375 6.890625 26.8125 6.890625 
Q 36.078125 6.890625 40.9375 10.546875 
Q 45.796875 14.203125 45.796875 21.1875 
Q 45.796875 27.640625 41.28125 31.265625 
Q 36.765625 34.90625 28.71875 34.90625 
L 20.21875 34.90625 
L 20.21875 43.015625 
L 29.109375 43.015625 
Q 36.375 43.015625 40.234375 45.921875 
Q 44.09375 48.828125 44.09375 54.296875 
Q 44.09375 59.90625 40.109375 62.90625 
Q 36.140625 65.921875 28.71875 65.921875 
Q 24.65625 65.921875 20.015625 65.03125 
Q 15.375 64.15625 9.8125 62.3125 
L 9.8125 71.09375 
Q 15.4375 72.65625 20.34375 73.4375 
Q 25.25 74.21875 29.59375 74.21875 
Q 40.828125 74.21875 47.359375 69.109375 
Q 53.90625 64.015625 53.90625 55.328125 
Q 53.90625 49.265625 50.4375 45.09375 
Q 46.96875 40.921875 40.578125 39.3125 
" id="DejaVuSans-33"/>
      </defs>
      <g transform="translate(263.093535 130.39566)scale(0.1 -0.1)">
       <use xlink:href="#DejaVuSans-33"/>
       <use x="63.623047" xlink:href="#DejaVuSans-2e"/>
       <use x="95.410156" xlink:href="#DejaVuSans-32"/>
       <use x="159.033203" xlink:href="#DejaVuSans-35"/>
      </g>
     </g>
    </g>
    <g id="xtick_6">
     <g id="line2d_12">
      <g>
       <use style="stroke:#000000;stroke-width:0.8;" x="321.281299" xlink:href="#mdac9d2ec14" y="115.797222"/>
      </g>
     </g>
     <g id="text_13">
      <!-- 3.50 -->
      <g transform="translate(310.148486 130.39566)scale(0.1 -0.1)">
       <use xlink:href="#DejaVuSans-33"/>
       <use x="63.623047" xlink:href="#DejaVuSans-2e"/>
       <use x="95.410156" xlink:href="#DejaVuSans-35"/>
       <use x="159.033203" xlink:href="#DejaVuSans-30"/>
      </g>
     </g>
    </g>
    <g id="xtick_7">
     <g id="line2d_13">
      <g>
       <use style="stroke:#000000;stroke-width:0.8;" x="368.33625" xlink:href="#mdac9d2ec14" y="115.797222"/>
      </g>
     </g>
     <g id="text_14">
      <!-- 3.75 -->
      <g transform="translate(357.203438 130.39566)scale(0.1 -0.1)">
       <use xlink:href="#DejaVuSans-33"/>
       <use x="63.623047" xlink:href="#DejaVuSans-2e"/>
       <use x="95.410156" xlink:href="#DejaVuSans-37"/>
       <use x="159.033203" xlink:href="#DejaVuSans-35"/>
      </g>
     </g>
    </g>
    <g id="xtick_8">
     <g id="line2d_14">
      <g>
       <use style="stroke:#000000;stroke-width:0.8;" x="415.391202" xlink:href="#mdac9d2ec14" y="115.797222"/>
      </g>
     </g>
     <g id="text_15">
      <!-- 4.00 -->
      <g transform="translate(404.25839 130.39566)scale(0.1 -0.1)">
       <use xlink:href="#DejaVuSans-34"/>
       <use x="63.623047" xlink:href="#DejaVuSans-2e"/>
       <use x="95.410156" xlink:href="#DejaVuSans-30"/>
       <use x="159.033203" xlink:href="#DejaVuSans-30"/>
      </g>
     </g>
    </g>
    <g id="text_16">
     <!-- $\theta$ -->
     <defs>
      <path d="M 45.515625 34.671875 
L 14.453125 34.671875 
Q 12.359375 20.0625 14.5 13.875 
Q 17.1875 6.25 24.46875 6.25 
Q 31.78125 6.25 37.359375 13.921875 
Q 42.234375 20.65625 45.515625 34.671875 
M 47.015625 42.96875 
Q 48.34375 56.84375 46.625 61.71875 
Q 43.953125 69.4375 36.765625 69.4375 
Q 29.296875 69.4375 23.828125 61.8125 
Q 19.53125 55.671875 16.15625 42.96875 
z
M 38.1875 76.765625 
Q 49.90625 76.765625 54.59375 66.40625 
Q 59.28125 56.109375 55.71875 37.84375 
Q 52.203125 19.625 43.453125 9.28125 
Q 34.765625 -1.125 23.046875 -1.125 
Q 11.28125 -1.125 6.640625 9.28125 
Q 2 19.625 5.515625 37.84375 
Q 9.078125 56.109375 17.71875 66.40625 
Q 26.421875 76.765625 38.1875 76.765625 
" id="DejaVuSans-Oblique-3b8"/>
     </defs>
     <g transform="translate(332.19375 144.073785)scale(0.1 -0.1)">
      <use transform="translate(0 0.234375)" xlink:href="#DejaVuSans-Oblique-3b8"/>
     </g>
    </g>
    <g id="text_17">
     <!-- 1e−2 -->
     <g transform="translate(392.417342 143.073785)scale(0.1 -0.1)">
      <use xlink:href="#DejaVuSans-31"/>
      <use x="63.623047" xlink:href="#DejaVuSans-65"/>
      <use x="125.146484" xlink:href="#DejaVuSans-2212"/>
      <use x="208.935547" xlink:href="#DejaVuSans-32"/>
     </g>
    </g>
   </g>
   <g id="matplotlib.axis_4">
    <g id="ytick_6">
     <g id="line2d_15">
      <g>
       <use style="stroke:#000000;stroke-width:0.8;" x="250.912346" xlink:href="#m982616b7bc" y="115.797222"/>
      </g>
     </g>
     <g id="text_18">
      <!-- 0 -->
      <g transform="translate(237.549846 119.596441)scale(0.1 -0.1)">
       <use xlink:href="#DejaVuSans-30"/>
      </g>
     </g>
    </g>
    <g id="ytick_7">
     <g id="line2d_16">
      <g>
       <use style="stroke:#000000;stroke-width:0.8;" x="250.912346" xlink:href="#m982616b7bc" y="94.220432"/>
      </g>
     </g>
     <g id="text_19">
      <!-- 25 -->
      <g transform="translate(231.187346 98.019651)scale(0.1 -0.1)">
       <use xlink:href="#DejaVuSans-32"/>
       <use x="63.623047" xlink:href="#DejaVuSans-35"/>
      </g>
     </g>
    </g>
    <g id="ytick_8">
     <g id="line2d_17">
      <g>
       <use style="stroke:#000000;stroke-width:0.8;" x="250.912346" xlink:href="#m982616b7bc" y="72.643641"/>
      </g>
     </g>
     <g id="text_20">
      <!-- 50 -->
      <g transform="translate(231.187346 76.44286)scale(0.1 -0.1)">
       <use xlink:href="#DejaVuSans-35"/>
       <use x="63.623047" xlink:href="#DejaVuSans-30"/>
      </g>
     </g>
    </g>
    <g id="ytick_9">
     <g id="line2d_18">
      <g>
       <use style="stroke:#000000;stroke-width:0.8;" x="250.912346" xlink:href="#m982616b7bc" y="51.066851"/>
      </g>
     </g>
     <g id="text_21">
      <!-- 75 -->
      <g transform="translate(231.187346 54.86607)scale(0.1 -0.1)">
       <use xlink:href="#DejaVuSans-37"/>
       <use x="63.623047" xlink:href="#DejaVuSans-35"/>
      </g>
     </g>
    </g>
    <g id="ytick_10">
     <g id="line2d_19">
      <g>
       <use style="stroke:#000000;stroke-width:0.8;" x="250.912346" xlink:href="#m982616b7bc" y="29.49006"/>
      </g>
     </g>
     <g id="text_22">
      <!-- 100 -->
      <g transform="translate(224.824846 33.289279)scale(0.1 -0.1)">
       <use xlink:href="#DejaVuSans-31"/>
       <use x="63.623047" xlink:href="#DejaVuSans-30"/>
       <use x="127.246094" xlink:href="#DejaVuSans-30"/>
      </g>
     </g>
    </g>
   </g>
   <g id="line2d_20">
    <path clip-path="url(#p08bd910618)" d="M 334.332429 115.797222 
L 334.332429 14.3 
" style="fill:none;stroke:#1f77b4;stroke-linecap:square;stroke-width:1.5;"/>
   </g>
   <g id="patch_10">
    <path d="M 250.912346 115.797222 
L 250.912346 14.3 
" style="fill:none;stroke:#000000;stroke-linecap:square;stroke-linejoin:miter;stroke-width:0.8;"/>
   </g>
   <g id="patch_11">
    <path d="M 419.675154 115.797222 
L 419.675154 14.3 
" style="fill:none;stroke:#000000;stroke-linecap:square;stroke-linejoin:miter;stroke-width:0.8;"/>
   </g>
   <g id="patch_12">
    <path d="M 250.912346 115.797222 
L 419.675154 115.797222 
" style="fill:none;stroke:#000000;stroke-linecap:square;stroke-linejoin:miter;stroke-width:0.8;"/>
   </g>
   <g id="patch_13">
    <path d="M 250.912346 14.3 
L 419.675154 14.3 
" style="fill:none;stroke:#000000;stroke-linecap:square;stroke-linejoin:miter;stroke-width:0.8;"/>
   </g>
  </g>
  <g id="axes_3">
   <g id="patch_14">
    <path d="M 464.937191 115.797222 
L 633.7 115.797222 
L 633.7 14.3 
L 464.937191 14.3 
z
" style="fill:#ffffff;"/>
   </g>
   <g id="patch_15">
    <path clip-path="url(#pd5f0e20927)" d="M 472.608228 115.797222 
L 472.608228 111.68386 
L 477.722253 111.68386 
L 477.722253 107.570497 
L 482.836277 107.570497 
L 482.836277 109.627178 
L 487.950302 109.627178 
L 487.950302 96.25875 
L 493.064326 96.25875 
L 493.064326 88.032025 
L 498.178351 88.032025 
L 498.178351 80.83364 
L 503.292375 80.83364 
L 503.292375 55.125124 
L 508.4064 55.125124 
L 508.4064 54.096783 
L 513.520424 54.096783 
L 513.520424 52.040102 
L 518.634449 52.040102 
L 518.634449 22.218223 
L 523.748473 22.218223 
L 523.748473 24.274904 
L 528.862498 24.274904 
L 528.862498 19.133201 
L 533.976522 19.133201 
L 533.976522 43.813377 
L 539.090547 43.813377 
L 539.090547 33.52997 
L 544.204571 33.52997 
L 544.204571 41.756695 
L 549.318596 41.756695 
L 549.318596 71.578574 
L 554.43262 71.578574 
L 554.43262 66.436871 
L 559.546645 66.436871 
L 559.546645 80.83364 
L 564.660669 80.83364 
L 564.660669 89.060365 
L 569.774694 89.060365 
L 569.774694 100.372112 
L 574.888718 100.372112 
L 574.888718 106.542156 
L 580.002743 106.542156 
L 580.002743 94.202069 
L 585.116767 94.202069 
L 585.116767 106.542156 
L 590.230792 106.542156 
L 590.230792 113.740541 
L 595.344816 113.740541 
L 595.344816 110.655519 
L 600.458841 110.655519 
L 600.458841 111.68386 
L 605.572865 111.68386 
L 605.572865 111.68386 
L 610.68689 111.68386 
L 610.68689 112.7122 
L 615.800914 112.7122 
L 615.800914 114.768882 
L 620.914939 114.768882 
L 620.914939 114.768882 
L 626.028963 114.768882 
L 626.028963 115.797222 
L 620.914939 115.797222 
L 620.914939 115.797222 
L 615.800914 115.797222 
L 615.800914 115.797222 
L 610.68689 115.797222 
L 610.68689 115.797222 
L 605.572865 115.797222 
L 605.572865 115.797222 
L 600.458841 115.797222 
L 600.458841 115.797222 
L 595.344816 115.797222 
L 595.344816 115.797222 
L 590.230792 115.797222 
L 590.230792 115.797222 
L 585.116767 115.797222 
L 585.116767 115.797222 
L 580.002743 115.797222 
L 580.002743 115.797222 
L 574.888718 115.797222 
L 574.888718 115.797222 
L 569.774694 115.797222 
L 569.774694 115.797222 
L 564.660669 115.797222 
L 564.660669 115.797222 
L 559.546645 115.797222 
L 559.546645 115.797222 
L 554.43262 115.797222 
L 554.43262 115.797222 
L 549.318596 115.797222 
L 549.318596 115.797222 
L 544.204571 115.797222 
L 544.204571 115.797222 
L 539.090547 115.797222 
L 539.090547 115.797222 
L 533.976522 115.797222 
L 533.976522 115.797222 
L 528.862498 115.797222 
L 528.862498 115.797222 
L 523.748473 115.797222 
L 523.748473 115.797222 
L 518.634449 115.797222 
L 518.634449 115.797222 
L 513.520424 115.797222 
L 513.520424 115.797222 
L 508.4064 115.797222 
L 508.4064 115.797222 
L 503.292375 115.797222 
L 503.292375 115.797222 
L 498.178351 115.797222 
L 498.178351 115.797222 
L 493.064326 115.797222 
L 493.064326 115.797222 
L 487.950302 115.797222 
L 487.950302 115.797222 
L 482.836277 115.797222 
L 482.836277 115.797222 
L 477.722253 115.797222 
L 477.722253 115.797222 
z
" style="opacity:0.5;"/>
   </g>
   <g id="matplotlib.axis_5">
    <g id="xtick_9">
     <g id="line2d_21">
      <g>
       <use style="stroke:#000000;stroke-width:0.8;" x="478.005501" xlink:href="#mdac9d2ec14" y="115.797222"/>
      </g>
     </g>
     <g id="text_23">
      <!-- 0.12 -->
      <g transform="translate(466.872689 130.39566)scale(0.1 -0.1)">
       <use xlink:href="#DejaVuSans-30"/>
       <use x="63.623047" xlink:href="#DejaVuSans-2e"/>
       <use x="95.410156" xlink:href="#DejaVuSans-31"/>
       <use x="159.033203" xlink:href="#DejaVuSans-32"/>
      </g>
     </g>
    </g>
    <g id="xtick_10">
     <g id="line2d_22">
      <g>
       <use style="stroke:#000000;stroke-width:0.8;" x="526.077238" xlink:href="#mdac9d2ec14" y="115.797222"/>
      </g>
     </g>
     <g id="text_24">
      <!-- 0.14 -->
      <g transform="translate(514.944426 130.39566)scale(0.1 -0.1)">
       <use xlink:href="#DejaVuSans-30"/>
       <use x="63.623047" xlink:href="#DejaVuSans-2e"/>
       <use x="95.410156" xlink:href="#DejaVuSans-31"/>
       <use x="159.033203" xlink:href="#DejaVuSans-34"/>
      </g>
     </g>
    </g>
    <g id="xtick_11">
     <g id="line2d_23">
      <g>
       <use style="stroke:#000000;stroke-width:0.8;" x="574.148976" xlink:href="#mdac9d2ec14" y="115.797222"/>
      </g>
     </g>
     <g id="text_25">
      <!-- 0.16 -->
      <g transform="translate(563.016163 130.39566)scale(0.1 -0.1)">
       <use xlink:href="#DejaVuSans-30"/>
       <use x="63.623047" xlink:href="#DejaVuSans-2e"/>
       <use x="95.410156" xlink:href="#DejaVuSans-31"/>
       <use x="159.033203" xlink:href="#DejaVuSans-36"/>
      </g>
     </g>
    </g>
    <g id="xtick_12">
     <g id="line2d_24">
      <g>
       <use style="stroke:#000000;stroke-width:0.8;" x="622.220713" xlink:href="#mdac9d2ec14" y="115.797222"/>
      </g>
     </g>
     <g id="text_26">
      <!-- 0.18 -->
      <g transform="translate(611.087901 130.39566)scale(0.1 -0.1)">
       <use xlink:href="#DejaVuSans-30"/>
       <use x="63.623047" xlink:href="#DejaVuSans-2e"/>
       <use x="95.410156" xlink:href="#DejaVuSans-31"/>
       <use x="159.033203" xlink:href="#DejaVuSans-38"/>
      </g>
     </g>
    </g>
    <g id="text_27">
     <!-- $\phi$ -->
     <defs>
      <path d="M 46.734375 75.984375 
L 42.78125 55.8125 
Q 52.546875 55.8125 57.5625 48.34375 
Q 62.75 40.71875 60.15625 27.296875 
Q 57.515625 13.875 49.359375 6.25 
Q 41.453125 -1.21875 31.6875 -1.21875 
L 27.875 -20.796875 
L 18.953125 -20.796875 
L 22.75 -1.21875 
Q 13.03125 -1.21875 7.953125 6.25 
Q 2.78125 13.875 5.421875 27.296875 
Q 8.015625 40.71875 16.15625 48.34375 
Q 24.125 55.8125 33.84375 55.8125 
L 37.796875 75.984375 
z
M 33.25 6.78125 
Q 38.765625 6.78125 43.5 11.8125 
Q 48.6875 17.4375 50.6875 27.296875 
Q 52.640625 37.0625 49.515625 42.78125 
Q 46.734375 47.796875 41.21875 47.796875 
z
M 24.3125 6.78125 
L 32.28125 47.796875 
Q 26.8125 47.796875 22.078125 42.78125 
Q 16.75 37.0625 14.890625 27.296875 
Q 13.03125 17.4375 16.0625 11.8125 
Q 18.796875 6.78125 24.3125 6.78125 
" id="DejaVuSans-Oblique-3d5"/>
     </defs>
     <g transform="translate(546.018596 144.075347)scale(0.1 -0.1)">
      <use transform="translate(0 0.015625)" xlink:href="#DejaVuSans-Oblique-3d5"/>
     </g>
    </g>
   </g>
   <g id="matplotlib.axis_6">
    <g id="ytick_11">
     <g id="line2d_25">
      <g>
       <use style="stroke:#000000;stroke-width:0.8;" x="464.937191" xlink:href="#m982616b7bc" y="115.797222"/>
      </g>
     </g>
     <g id="text_28">
      <!-- 0 -->
      <g transform="translate(451.574691 119.596441)scale(0.1 -0.1)">
       <use xlink:href="#DejaVuSans-30"/>
      </g>
     </g>
    </g>
    <g id="ytick_12">
     <g id="line2d_26">
      <g>
       <use style="stroke:#000000;stroke-width:0.8;" x="464.937191" xlink:href="#m982616b7bc" y="95.230409"/>
      </g>
     </g>
     <g id="text_29">
      <!-- 20 -->
      <g transform="translate(445.212191 99.029628)scale(0.1 -0.1)">
       <use xlink:href="#DejaVuSans-32"/>
       <use x="63.623047" xlink:href="#DejaVuSans-30"/>
      </g>
     </g>
    </g>
    <g id="ytick_13">
     <g id="line2d_27">
      <g>
       <use style="stroke:#000000;stroke-width:0.8;" x="464.937191" xlink:href="#m982616b7bc" y="74.663596"/>
      </g>
     </g>
     <g id="text_30">
      <!-- 40 -->
      <g transform="translate(445.212191 78.462815)scale(0.1 -0.1)">
       <use xlink:href="#DejaVuSans-34"/>
       <use x="63.623047" xlink:href="#DejaVuSans-30"/>
      </g>
     </g>
    </g>
    <g id="ytick_14">
     <g id="line2d_28">
      <g>
       <use style="stroke:#000000;stroke-width:0.8;" x="464.937191" xlink:href="#m982616b7bc" y="54.096783"/>
      </g>
     </g>
     <g id="text_31">
      <!-- 60 -->
      <g transform="translate(445.212191 57.896002)scale(0.1 -0.1)">
       <use xlink:href="#DejaVuSans-36"/>
       <use x="63.623047" xlink:href="#DejaVuSans-30"/>
      </g>
     </g>
    </g>
    <g id="ytick_15">
     <g id="line2d_29">
      <g>
       <use style="stroke:#000000;stroke-width:0.8;" x="464.937191" xlink:href="#m982616b7bc" y="33.52997"/>
      </g>
     </g>
     <g id="text_32">
      <!-- 80 -->
      <g transform="translate(445.212191 37.329189)scale(0.1 -0.1)">
       <use xlink:href="#DejaVuSans-38"/>
       <use x="63.623047" xlink:href="#DejaVuSans-30"/>
      </g>
     </g>
    </g>
   </g>
   <g id="line2d_30">
    <path clip-path="url(#pd5f0e20927)" d="M 530.715025 115.797222 
L 530.715025 14.3 
" style="fill:none;stroke:#1f77b4;stroke-linecap:square;stroke-width:1.5;"/>
   </g>
   <g id="patch_16">
    <path d="M 464.937191 115.797222 
L 464.937191 14.3 
" style="fill:none;stroke:#000000;stroke-linecap:square;stroke-linejoin:miter;stroke-width:0.8;"/>
   </g>
   <g id="patch_17">
    <path d="M 633.7 115.797222 
L 633.7 14.3 
" style="fill:none;stroke:#000000;stroke-linecap:square;stroke-linejoin:miter;stroke-width:0.8;"/>
   </g>
   <g id="patch_18">
    <path d="M 464.937191 115.797222 
L 633.7 115.797222 
" style="fill:none;stroke:#000000;stroke-linecap:square;stroke-linejoin:miter;stroke-width:0.8;"/>
   </g>
   <g id="patch_19">
    <path d="M 464.937191 14.3 
L 633.7 14.3 
" style="fill:none;stroke:#000000;stroke-linecap:square;stroke-linejoin:miter;stroke-width:0.8;"/>
   </g>
  </g>
  <g id="axes_4">
   <g id="patch_20">
    <path d="M 36.8875 261.972569 
L 205.650309 261.972569 
L 205.650309 160.475347 
L 36.8875 160.475347 
z
" style="fill:#ffffff;"/>
   </g>
   <g id="patch_21">
    <path clip-path="url(#p3fc7044df5)" d="M 44.558537 261.972569 
L 44.558537 212.222238 
L 49.672561 212.222238 
L 49.672561 165.308548 
L 54.786586 165.308548 
L 54.786586 214.622473 
L 59.90061 214.622473 
L 59.90061 248.007564 
L 65.014635 248.007564 
L 65.014635 256.299286 
L 70.128659 256.299286 
L 70.128659 259.354131 
L 75.242684 259.354131 
L 75.242684 261.099757 
L 80.356708 261.099757 
L 80.356708 261.536163 
L 85.470733 261.536163 
L 85.470733 261.972569 
L 90.584757 261.972569 
L 90.584757 261.754366 
L 95.698782 261.754366 
L 95.698782 261.972569 
L 100.812806 261.972569 
L 100.812806 261.972569 
L 105.926831 261.972569 
L 105.926831 261.754366 
L 111.040855 261.754366 
L 111.040855 261.972569 
L 116.15488 261.972569 
L 116.15488 261.972569 
L 121.268904 261.972569 
L 121.268904 261.754366 
L 126.382929 261.754366 
L 126.382929 261.972569 
L 131.496953 261.972569 
L 131.496953 261.972569 
L 136.610978 261.972569 
L 136.610978 261.972569 
L 141.725002 261.972569 
L 141.725002 261.972569 
L 146.839027 261.972569 
L 146.839027 261.972569 
L 151.953051 261.972569 
L 151.953051 261.972569 
L 157.067076 261.972569 
L 157.067076 261.972569 
L 162.1811 261.972569 
L 162.1811 261.972569 
L 167.295125 261.972569 
L 167.295125 261.972569 
L 172.409149 261.972569 
L 172.409149 261.972569 
L 177.523174 261.972569 
L 177.523174 261.972569 
L 182.637198 261.972569 
L 182.637198 261.972569 
L 187.751223 261.972569 
L 187.751223 261.972569 
L 192.865247 261.972569 
L 192.865247 261.754366 
L 197.979272 261.754366 
L 197.979272 261.972569 
L 192.865247 261.972569 
L 192.865247 261.972569 
L 187.751223 261.972569 
L 187.751223 261.972569 
L 182.637198 261.972569 
L 182.637198 261.972569 
L 177.523174 261.972569 
L 177.523174 261.972569 
L 172.409149 261.972569 
L 172.409149 261.972569 
L 167.295125 261.972569 
L 167.295125 261.972569 
L 162.1811 261.972569 
L 162.1811 261.972569 
L 157.067076 261.972569 
L 157.067076 261.972569 
L 151.953051 261.972569 
L 151.953051 261.972569 
L 146.839027 261.972569 
L 146.839027 261.972569 
L 141.725002 261.972569 
L 141.725002 261.972569 
L 136.610978 261.972569 
L 136.610978 261.972569 
L 131.496953 261.972569 
L 131.496953 261.972569 
L 126.382929 261.972569 
L 126.382929 261.972569 
L 121.268904 261.972569 
L 121.268904 261.972569 
L 116.15488 261.972569 
L 116.15488 261.972569 
L 111.040855 261.972569 
L 111.040855 261.972569 
L 105.926831 261.972569 
L 105.926831 261.972569 
L 100.812806 261.972569 
L 100.812806 261.972569 
L 95.698782 261.972569 
L 95.698782 261.972569 
L 90.584757 261.972569 
L 90.584757 261.972569 
L 85.470733 261.972569 
L 85.470733 261.972569 
L 80.356708 261.972569 
L 80.356708 261.972569 
L 75.242684 261.972569 
L 75.242684 261.972569 
L 70.128659 261.972569 
L 70.128659 261.972569 
L 65.014635 261.972569 
L 65.014635 261.972569 
L 59.90061 261.972569 
L 59.90061 261.972569 
L 54.786586 261.972569 
L 54.786586 261.972569 
L 49.672561 261.972569 
L 49.672561 261.972569 
z
" style="opacity:0.5;"/>
   </g>
   <g id="matplotlib.axis_7">
    <g id="xtick_13">
     <g id="line2d_31">
      <g>
       <use style="stroke:#000000;stroke-width:0.8;" x="74.276547" xlink:href="#mdac9d2ec14" y="261.972569"/>
      </g>
     </g>
     <g id="text_33">
      <!-- 0.2 -->
      <g transform="translate(66.324985 276.571007)scale(0.1 -0.1)">
       <use xlink:href="#DejaVuSans-30"/>
       <use x="63.623047" xlink:href="#DejaVuSans-2e"/>
       <use x="95.410156" xlink:href="#DejaVuSans-32"/>
      </g>
     </g>
    </g>
    <g id="xtick_14">
     <g id="line2d_32">
      <g>
       <use style="stroke:#000000;stroke-width:0.8;" x="117.397557" xlink:href="#mdac9d2ec14" y="261.972569"/>
      </g>
     </g>
     <g id="text_34">
      <!-- 0.4 -->
      <g transform="translate(109.445995 276.571007)scale(0.1 -0.1)">
       <use xlink:href="#DejaVuSans-30"/>
       <use x="63.623047" xlink:href="#DejaVuSans-2e"/>
       <use x="95.410156" xlink:href="#DejaVuSans-34"/>
      </g>
     </g>
    </g>
    <g id="xtick_15">
     <g id="line2d_33">
      <g>
       <use style="stroke:#000000;stroke-width:0.8;" x="160.518567" xlink:href="#mdac9d2ec14" y="261.972569"/>
      </g>
     </g>
     <g id="text_35">
      <!-- 0.6 -->
      <g transform="translate(152.567005 276.571007)scale(0.1 -0.1)">
       <use xlink:href="#DejaVuSans-30"/>
       <use x="63.623047" xlink:href="#DejaVuSans-2e"/>
       <use x="95.410156" xlink:href="#DejaVuSans-36"/>
      </g>
     </g>
    </g>
    <g id="xtick_16">
     <g id="line2d_34">
      <g>
       <use style="stroke:#000000;stroke-width:0.8;" x="203.639577" xlink:href="#mdac9d2ec14" y="261.972569"/>
      </g>
     </g>
     <g id="text_36">
      <!-- 0.8 -->
      <g transform="translate(195.688015 276.571007)scale(0.1 -0.1)">
       <use xlink:href="#DejaVuSans-30"/>
       <use x="63.623047" xlink:href="#DejaVuSans-2e"/>
       <use x="95.410156" xlink:href="#DejaVuSans-38"/>
      </g>
     </g>
    </g>
    <g id="text_37">
     <!-- $\bar f$ -->
     <defs>
      <path d="M -39.34375 74.515625 
L -10.15625 74.515625 
L -10.15625 67.28125 
L -39.34375 67.28125 
z
" id="DejaVuSans-304"/>
      <path d="M 47.796875 75.984375 
L 46.390625 68.5 
L 37.796875 68.5 
Q 32.90625 68.5 30.6875 66.578125 
Q 28.46875 64.65625 27.390625 59.515625 
L 26.421875 54.6875 
L 41.21875 54.6875 
L 39.890625 47.703125 
L 25.09375 47.703125 
L 15.828125 0 
L 6.78125 0 
L 16.109375 47.703125 
L 7.515625 47.703125 
L 8.796875 54.6875 
L 17.390625 54.6875 
L 18.109375 58.5 
Q 19.96875 68.171875 24.625 72.078125 
Q 29.296875 75.984375 39.3125 75.984375 
z
" id="DejaVuSans-Oblique-66"/>
     </defs>
     <g transform="translate(119.168904 290.249132)scale(0.1 -0.1)">
      <use transform="translate(50.597656 21.484375)" xlink:href="#DejaVuSans-304"/>
      <use transform="translate(0 0.28125)" xlink:href="#DejaVuSans-Oblique-66"/>
     </g>
    </g>
    <g id="text_38">
     <!-- 1e4 -->
     <g transform="translate(186.772184 289.249132)scale(0.1 -0.1)">
      <use xlink:href="#DejaVuSans-31"/>
      <use x="63.623047" xlink:href="#DejaVuSans-65"/>
      <use x="125.146484" xlink:href="#DejaVuSans-34"/>
     </g>
    </g>
   </g>
   <g id="matplotlib.axis_8">
    <g id="ytick_16">
     <g id="line2d_35">
      <g>
       <use style="stroke:#000000;stroke-width:0.8;" x="36.8875" xlink:href="#m982616b7bc" y="261.972569"/>
      </g>
     </g>
     <g id="text_39">
      <!-- 0 -->
      <g transform="translate(23.525 265.771788)scale(0.1 -0.1)">
       <use xlink:href="#DejaVuSans-30"/>
      </g>
     </g>
    </g>
    <g id="ytick_17">
     <g id="line2d_36">
      <g>
       <use style="stroke:#000000;stroke-width:0.8;" x="36.8875" xlink:href="#m982616b7bc" y="240.152249"/>
      </g>
     </g>
     <g id="text_40">
      <!-- 100 -->
      <g transform="translate(10.8 243.951467)scale(0.1 -0.1)">
       <use xlink:href="#DejaVuSans-31"/>
       <use x="63.623047" xlink:href="#DejaVuSans-30"/>
       <use x="127.246094" xlink:href="#DejaVuSans-30"/>
      </g>
     </g>
    </g>
    <g id="ytick_18">
     <g id="line2d_37">
      <g>
       <use style="stroke:#000000;stroke-width:0.8;" x="36.8875" xlink:href="#m982616b7bc" y="218.331928"/>
      </g>
     </g>
     <g id="text_41">
      <!-- 200 -->
      <g transform="translate(10.8 222.131147)scale(0.1 -0.1)">
       <use xlink:href="#DejaVuSans-32"/>
       <use x="63.623047" xlink:href="#DejaVuSans-30"/>
       <use x="127.246094" xlink:href="#DejaVuSans-30"/>
      </g>
     </g>
    </g>
    <g id="ytick_19">
     <g id="line2d_38">
      <g>
       <use style="stroke:#000000;stroke-width:0.8;" x="36.8875" xlink:href="#m982616b7bc" y="196.511607"/>
      </g>
     </g>
     <g id="text_42">
      <!-- 300 -->
      <g transform="translate(10.8 200.310826)scale(0.1 -0.1)">
       <use xlink:href="#DejaVuSans-33"/>
       <use x="63.623047" xlink:href="#DejaVuSans-30"/>
       <use x="127.246094" xlink:href="#DejaVuSans-30"/>
      </g>
     </g>
    </g>
    <g id="ytick_20">
     <g id="line2d_39">
      <g>
       <use style="stroke:#000000;stroke-width:0.8;" x="36.8875" xlink:href="#m982616b7bc" y="174.691286"/>
      </g>
     </g>
     <g id="text_43">
      <!-- 400 -->
      <g transform="translate(10.8 178.490505)scale(0.1 -0.1)">
       <use xlink:href="#DejaVuSans-34"/>
       <use x="63.623047" xlink:href="#DejaVuSans-30"/>
       <use x="127.246094" xlink:href="#DejaVuSans-30"/>
      </g>
     </g>
    </g>
   </g>
   <g id="line2d_40">
    <path clip-path="url(#p3fc7044df5)" d="M 52.649312 261.972569 
L 52.649312 160.475347 
" style="fill:none;stroke:#1f77b4;stroke-linecap:square;stroke-width:1.5;"/>
   </g>
   <g id="patch_22">
    <path d="M 36.8875 261.972569 
L 36.8875 160.475347 
" style="fill:none;stroke:#000000;stroke-linecap:square;stroke-linejoin:miter;stroke-width:0.8;"/>
   </g>
   <g id="patch_23">
    <path d="M 205.650309 261.972569 
L 205.650309 160.475347 
" style="fill:none;stroke:#000000;stroke-linecap:square;stroke-linejoin:miter;stroke-width:0.8;"/>
   </g>
   <g id="patch_24">
    <path d="M 36.8875 261.972569 
L 205.650309 261.972569 
" style="fill:none;stroke:#000000;stroke-linecap:square;stroke-linejoin:miter;stroke-width:0.8;"/>
   </g>
   <g id="patch_25">
    <path d="M 36.8875 160.475347 
L 205.650309 160.475347 
" style="fill:none;stroke:#000000;stroke-linecap:square;stroke-linejoin:miter;stroke-width:0.8;"/>
   </g>
  </g>
  <g id="axes_5">
   <g id="patch_26">
    <path d="M 250.912346 261.972569 
L 419.675154 261.972569 
L 419.675154 160.475347 
L 250.912346 160.475347 
z
" style="fill:#ffffff;"/>
   </g>
   <g id="patch_27">
    <path clip-path="url(#p6a7cd57b03)" d="M 258.583382 261.972569 
L 258.583382 259.848085 
L 263.697407 259.848085 
L 263.697407 257.723601 
L 268.811431 257.723601 
L 268.811431 256.661359 
L 273.925456 256.661359 
L 273.925456 252.412392 
L 279.03948 252.412392 
L 279.03948 250.287908 
L 284.153505 250.287908 
L 284.153505 251.35015 
L 289.267529 251.35015 
L 289.267529 233.292036 
L 294.381554 233.292036 
L 294.381554 213.109438 
L 299.495578 213.109438 
L 299.495578 197.175808 
L 304.609603 197.175808 
L 304.609603 190.802356 
L 309.723627 190.802356 
L 309.723627 180.179936 
L 314.837652 180.179936 
L 314.837652 179.117694 
L 319.951676 179.117694 
L 319.951676 165.308548 
L 325.065701 165.308548 
L 325.065701 180.179936 
L 330.179725 180.179936 
L 330.179725 170.619758 
L 335.29375 170.619758 
L 335.29375 182.30442 
L 340.407775 182.30442 
L 340.407775 201.424776 
L 345.521799 201.424776 
L 345.521799 199.300292 
L 350.635824 199.300292 
L 350.635824 221.607374 
L 355.749848 221.607374 
L 355.749848 229.043068 
L 360.863873 229.043068 
L 360.863873 234.354278 
L 365.977897 234.354278 
L 365.977897 242.852214 
L 371.091922 242.852214 
L 371.091922 253.474634 
L 376.205946 253.474634 
L 376.205946 250.287908 
L 381.319971 250.287908 
L 381.319971 250.287908 
L 386.433995 250.287908 
L 386.433995 254.536876 
L 391.54802 254.536876 
L 391.54802 257.723601 
L 396.662044 257.723601 
L 396.662044 260.910327 
L 401.776069 260.910327 
L 401.776069 259.848085 
L 406.890093 259.848085 
L 406.890093 260.910327 
L 412.004118 260.910327 
L 412.004118 261.972569 
L 406.890093 261.972569 
L 406.890093 261.972569 
L 401.776069 261.972569 
L 401.776069 261.972569 
L 396.662044 261.972569 
L 396.662044 261.972569 
L 391.54802 261.972569 
L 391.54802 261.972569 
L 386.433995 261.972569 
L 386.433995 261.972569 
L 381.319971 261.972569 
L 381.319971 261.972569 
L 376.205946 261.972569 
L 376.205946 261.972569 
L 371.091922 261.972569 
L 371.091922 261.972569 
L 365.977897 261.972569 
L 365.977897 261.972569 
L 360.863873 261.972569 
L 360.863873 261.972569 
L 355.749848 261.972569 
L 355.749848 261.972569 
L 350.635824 261.972569 
L 350.635824 261.972569 
L 345.521799 261.972569 
L 345.521799 261.972569 
L 340.407775 261.972569 
L 340.407775 261.972569 
L 335.29375 261.972569 
L 335.29375 261.972569 
L 330.179725 261.972569 
L 330.179725 261.972569 
L 325.065701 261.972569 
L 325.065701 261.972569 
L 319.951676 261.972569 
L 319.951676 261.972569 
L 314.837652 261.972569 
L 314.837652 261.972569 
L 309.723627 261.972569 
L 309.723627 261.972569 
L 304.609603 261.972569 
L 304.609603 261.972569 
L 299.495578 261.972569 
L 299.495578 261.972569 
L 294.381554 261.972569 
L 294.381554 261.972569 
L 289.267529 261.972569 
L 289.267529 261.972569 
L 284.153505 261.972569 
L 284.153505 261.972569 
L 279.03948 261.972569 
L 279.03948 261.972569 
L 273.925456 261.972569 
L 273.925456 261.972569 
L 268.811431 261.972569 
L 268.811431 261.972569 
L 263.697407 261.972569 
L 263.697407 261.972569 
z
" style="opacity:0.5;"/>
   </g>
   <g id="matplotlib.axis_9">
    <g id="xtick_17">
     <g id="line2d_41">
      <g>
       <use style="stroke:#000000;stroke-width:0.8;" x="279.761086" xlink:href="#mdac9d2ec14" y="261.972569"/>
      </g>
     </g>
     <g id="text_44">
      <!-- 3.5 -->
      <g transform="translate(271.809524 276.571007)scale(0.1 -0.1)">
       <use xlink:href="#DejaVuSans-33"/>
       <use x="63.623047" xlink:href="#DejaVuSans-2e"/>
       <use x="95.410156" xlink:href="#DejaVuSans-35"/>
      </g>
     </g>
    </g>
    <g id="xtick_18">
     <g id="line2d_42">
      <g>
       <use style="stroke:#000000;stroke-width:0.8;" x="326.5602" xlink:href="#mdac9d2ec14" y="261.972569"/>
      </g>
     </g>
     <g id="text_45">
      <!-- 4.0 -->
      <g transform="translate(318.608638 276.571007)scale(0.1 -0.1)">
       <use xlink:href="#DejaVuSans-34"/>
       <use x="63.623047" xlink:href="#DejaVuSans-2e"/>
       <use x="95.410156" xlink:href="#DejaVuSans-30"/>
      </g>
     </g>
    </g>
    <g id="xtick_19">
     <g id="line2d_43">
      <g>
       <use style="stroke:#000000;stroke-width:0.8;" x="373.359314" xlink:href="#mdac9d2ec14" y="261.972569"/>
      </g>
     </g>
     <g id="text_46">
      <!-- 4.5 -->
      <g transform="translate(365.407752 276.571007)scale(0.1 -0.1)">
       <use xlink:href="#DejaVuSans-34"/>
       <use x="63.623047" xlink:href="#DejaVuSans-2e"/>
       <use x="95.410156" xlink:href="#DejaVuSans-35"/>
      </g>
     </g>
    </g>
    <g id="xtick_20">
     <g id="line2d_44">
      <g>
       <use style="stroke:#000000;stroke-width:0.8;" x="420.158428" xlink:href="#mdac9d2ec14" y="261.972569"/>
      </g>
     </g>
     <g id="text_47">
      <!-- 5.0 -->
      <g transform="translate(412.206866 276.571007)scale(0.1 -0.1)">
       <use xlink:href="#DejaVuSans-35"/>
       <use x="63.623047" xlink:href="#DejaVuSans-2e"/>
       <use x="95.410156" xlink:href="#DejaVuSans-30"/>
      </g>
     </g>
    </g>
    <g id="text_48">
     <!-- $\gamma/\mu$ -->
     <defs>
      <path d="M 23.296875 46.09375 
L 28.71875 12.3125 
L 54 54.6875 
L 63.53125 54.6875 
L 30.8125 0 
L 26.765625 -20.796875 
L 17.78125 -20.796875 
L 21.828125 0 
L 15.4375 40.828125 
Q 14.453125 46.96875 9.8125 46.96875 
L 7.421875 46.96875 
L 8.890625 54.6875 
L 12.3125 54.6875 
Q 21.921875 54.6875 23.296875 46.09375 
" id="DejaVuSans-Oblique-3b3"/>
      <path d="M 25.390625 72.90625 
L 33.6875 72.90625 
L 8.296875 -9.28125 
L 0 -9.28125 
z
" id="DejaVuSans-2f"/>
      <path d="M -1.3125 -20.796875 
L 13.375 54.6875 
L 22.40625 54.6875 
L 15.765625 20.65625 
Q 15.578125 19.625 15.421875 18.359375 
Q 15.28125 17.09375 15.28125 15.828125 
Q 15.28125 11.28125 18.140625 8.828125 
Q 21 6.390625 26.3125 6.390625 
Q 33.546875 6.390625 37.984375 10.484375 
Q 42.4375 14.59375 44 22.796875 
L 50.203125 54.6875 
L 59.1875 54.6875 
L 51.03125 12.640625 
Q 50.828125 11.71875 50.75 11.03125 
Q 50.6875 10.359375 50.6875 9.8125 
Q 50.6875 8.296875 51.296875 7.59375 
Q 51.90625 6.890625 53.21875 6.890625 
Q 53.71875 6.890625 54.5625 7.125 
Q 55.421875 7.375 56.984375 8.015625 
L 55.609375 0.78125 
Q 53.46875 -0.296875 51.515625 -0.859375 
Q 49.5625 -1.421875 47.703125 -1.421875 
Q 44.484375 -1.421875 42.65625 0.625 
Q 40.828125 2.6875 40.828125 6.296875 
Q 38.09375 2.390625 34.296875 0.484375 
Q 30.515625 -1.421875 25.390625 -1.421875 
Q 20.84375 -1.421875 17.453125 0.671875 
Q 14.0625 2.78125 12.984375 6.203125 
L 7.71875 -20.796875 
z
" id="DejaVuSans-Oblique-3bc"/>
     </defs>
     <g transform="translate(327.44375 290.228819)scale(0.1 -0.1)">
      <use transform="translate(0 0.09375)" xlink:href="#DejaVuSans-Oblique-3b3"/>
      <use transform="translate(59.179688 0.09375)" xlink:href="#DejaVuSans-2f"/>
      <use transform="translate(92.871094 0.09375)" xlink:href="#DejaVuSans-Oblique-3bc"/>
     </g>
    </g>
   </g>
   <g id="matplotlib.axis_10">
    <g id="ytick_21">
     <g id="line2d_45">
      <g>
       <use style="stroke:#000000;stroke-width:0.8;" x="250.912346" xlink:href="#m982616b7bc" y="261.972569"/>
      </g>
     </g>
     <g id="text_49">
      <!-- 0 -->
      <g transform="translate(237.549846 265.771788)scale(0.1 -0.1)">
       <use xlink:href="#DejaVuSans-30"/>
      </g>
     </g>
    </g>
    <g id="ytick_22">
     <g id="line2d_46">
      <g>
       <use style="stroke:#000000;stroke-width:0.8;" x="250.912346" xlink:href="#m982616b7bc" y="240.72773"/>
      </g>
     </g>
     <g id="text_50">
      <!-- 20 -->
      <g transform="translate(231.187346 244.526948)scale(0.1 -0.1)">
       <use xlink:href="#DejaVuSans-32"/>
       <use x="63.623047" xlink:href="#DejaVuSans-30"/>
      </g>
     </g>
    </g>
    <g id="ytick_23">
     <g id="line2d_47">
      <g>
       <use style="stroke:#000000;stroke-width:0.8;" x="250.912346" xlink:href="#m982616b7bc" y="219.48289"/>
      </g>
     </g>
     <g id="text_51">
      <!-- 40 -->
      <g transform="translate(231.187346 223.282109)scale(0.1 -0.1)">
       <use xlink:href="#DejaVuSans-34"/>
       <use x="63.623047" xlink:href="#DejaVuSans-30"/>
      </g>
     </g>
    </g>
    <g id="ytick_24">
     <g id="line2d_48">
      <g>
       <use style="stroke:#000000;stroke-width:0.8;" x="250.912346" xlink:href="#m982616b7bc" y="198.23805"/>
      </g>
     </g>
     <g id="text_52">
      <!-- 60 -->
      <g transform="translate(231.187346 202.037269)scale(0.1 -0.1)">
       <use xlink:href="#DejaVuSans-36"/>
       <use x="63.623047" xlink:href="#DejaVuSans-30"/>
      </g>
     </g>
    </g>
    <g id="ytick_25">
     <g id="line2d_49">
      <g>
       <use style="stroke:#000000;stroke-width:0.8;" x="250.912346" xlink:href="#m982616b7bc" y="176.99321"/>
      </g>
     </g>
     <g id="text_53">
      <!-- 80 -->
      <g transform="translate(231.187346 180.792429)scale(0.1 -0.1)">
       <use xlink:href="#DejaVuSans-38"/>
       <use x="63.623047" xlink:href="#DejaVuSans-30"/>
      </g>
     </g>
    </g>
   </g>
   <g id="line2d_50">
    <path clip-path="url(#p6a7cd57b03)" d="M 324.346819 261.972569 
L 324.346819 160.475347 
" style="fill:none;stroke:#1f77b4;stroke-linecap:square;stroke-width:1.5;"/>
   </g>
   <g id="patch_28">
    <path d="M 250.912346 261.972569 
L 250.912346 160.475347 
" style="fill:none;stroke:#000000;stroke-linecap:square;stroke-linejoin:miter;stroke-width:0.8;"/>
   </g>
   <g id="patch_29">
    <path d="M 419.675154 261.972569 
L 419.675154 160.475347 
" style="fill:none;stroke:#000000;stroke-linecap:square;stroke-linejoin:miter;stroke-width:0.8;"/>
   </g>
   <g id="patch_30">
    <path d="M 250.912346 261.972569 
L 419.675154 261.972569 
" style="fill:none;stroke:#000000;stroke-linecap:square;stroke-linejoin:miter;stroke-width:0.8;"/>
   </g>
   <g id="patch_31">
    <path d="M 250.912346 160.475347 
L 419.675154 160.475347 
" style="fill:none;stroke:#000000;stroke-linecap:square;stroke-linejoin:miter;stroke-width:0.8;"/>
   </g>
  </g>
  <g id="axes_6">
   <g id="patch_32">
    <path d="M 464.937191 261.972569 
L 633.7 261.972569 
L 633.7 160.475347 
L 464.937191 160.475347 
z
" style="fill:#ffffff;"/>
   </g>
   <g id="patch_33">
    <path clip-path="url(#p9e0dbfa76f)" d="M 472.608228 261.972569 
L 472.608228 220.392037 
L 477.722253 220.392037 
L 477.722253 165.308548 
L 482.836277 165.308548 
L 482.836277 210.532736 
L 487.950302 210.532736 
L 487.950302 247.612282 
L 493.064326 247.612282 
L 493.064326 255.756923 
L 498.178351 255.756923 
L 498.178351 260.472241 
L 503.292375 260.472241 
L 503.292375 260.472241 
L 508.4064 260.472241 
L 508.4064 261.758237 
L 513.520424 261.758237 
L 513.520424 261.758237 
L 518.634449 261.758237 
L 518.634449 261.972569 
L 523.748473 261.972569 
L 523.748473 261.972569 
L 528.862498 261.972569 
L 528.862498 261.758237 
L 533.976522 261.758237 
L 533.976522 261.972569 
L 539.090547 261.972569 
L 539.090547 261.972569 
L 544.204571 261.972569 
L 544.204571 261.972569 
L 549.318596 261.972569 
L 549.318596 261.758237 
L 554.43262 261.758237 
L 554.43262 261.972569 
L 559.546645 261.972569 
L 559.546645 261.972569 
L 564.660669 261.972569 
L 564.660669 261.972569 
L 569.774694 261.972569 
L 569.774694 261.972569 
L 574.888718 261.972569 
L 574.888718 261.972569 
L 580.002743 261.972569 
L 580.002743 261.972569 
L 585.116767 261.972569 
L 585.116767 261.972569 
L 590.230792 261.972569 
L 590.230792 261.972569 
L 595.344816 261.972569 
L 595.344816 261.972569 
L 600.458841 261.972569 
L 600.458841 261.972569 
L 605.572865 261.972569 
L 605.572865 261.972569 
L 610.68689 261.972569 
L 610.68689 261.972569 
L 615.800914 261.972569 
L 615.800914 261.972569 
L 620.914939 261.972569 
L 620.914939 261.758237 
L 626.028963 261.758237 
L 626.028963 261.972569 
L 620.914939 261.972569 
L 620.914939 261.972569 
L 615.800914 261.972569 
L 615.800914 261.972569 
L 610.68689 261.972569 
L 610.68689 261.972569 
L 605.572865 261.972569 
L 605.572865 261.972569 
L 600.458841 261.972569 
L 600.458841 261.972569 
L 595.344816 261.972569 
L 595.344816 261.972569 
L 590.230792 261.972569 
L 590.230792 261.972569 
L 585.116767 261.972569 
L 585.116767 261.972569 
L 580.002743 261.972569 
L 580.002743 261.972569 
L 574.888718 261.972569 
L 574.888718 261.972569 
L 569.774694 261.972569 
L 569.774694 261.972569 
L 564.660669 261.972569 
L 564.660669 261.972569 
L 559.546645 261.972569 
L 559.546645 261.972569 
L 554.43262 261.972569 
L 554.43262 261.972569 
L 549.318596 261.972569 
L 549.318596 261.972569 
L 544.204571 261.972569 
L 544.204571 261.972569 
L 539.090547 261.972569 
L 539.090547 261.972569 
L 533.976522 261.972569 
L 533.976522 261.972569 
L 528.862498 261.972569 
L 528.862498 261.972569 
L 523.748473 261.972569 
L 523.748473 261.972569 
L 518.634449 261.972569 
L 518.634449 261.972569 
L 513.520424 261.972569 
L 513.520424 261.972569 
L 508.4064 261.972569 
L 508.4064 261.972569 
L 503.292375 261.972569 
L 503.292375 261.972569 
L 498.178351 261.972569 
L 498.178351 261.972569 
L 493.064326 261.972569 
L 493.064326 261.972569 
L 487.950302 261.972569 
L 487.950302 261.972569 
L 482.836277 261.972569 
L 482.836277 261.972569 
L 477.722253 261.972569 
L 477.722253 261.972569 
z
" style="opacity:0.5;"/>
   </g>
   <g id="matplotlib.axis_11">
    <g id="xtick_21">
     <g id="line2d_51">
      <g>
       <use style="stroke:#000000;stroke-width:0.8;" x="534.335976" xlink:href="#mdac9d2ec14" y="261.972569"/>
      </g>
     </g>
     <g id="text_54">
      <!-- 0.5 -->
      <g transform="translate(526.384414 276.571007)scale(0.1 -0.1)">
       <use xlink:href="#DejaVuSans-30"/>
       <use x="63.623047" xlink:href="#DejaVuSans-2e"/>
       <use x="95.410156" xlink:href="#DejaVuSans-35"/>
      </g>
     </g>
    </g>
    <g id="xtick_22">
     <g id="line2d_52">
      <g>
       <use style="stroke:#000000;stroke-width:0.8;" x="608.820046" xlink:href="#mdac9d2ec14" y="261.972569"/>
      </g>
     </g>
     <g id="text_55">
      <!-- 1.0 -->
      <g transform="translate(600.868483 276.571007)scale(0.1 -0.1)">
       <use xlink:href="#DejaVuSans-31"/>
       <use x="63.623047" xlink:href="#DejaVuSans-2e"/>
       <use x="95.410156" xlink:href="#DejaVuSans-30"/>
      </g>
     </g>
    </g>
    <g id="text_56">
     <!-- $\rho$ -->
     <defs>
      <path d="M 18.796875 44.921875 
Q 22.703125 49.90625 30.953125 54.296875 
Q 34.1875 56 43.0625 56 
Q 53.03125 56 57.71875 48.09375 
Q 62.40625 40.1875 59.90625 27.296875 
Q 57.375 14.40625 49.609375 6.484375 
Q 41.84375 -1.421875 31.890625 -1.421875 
Q 25.875 -1.421875 22.015625 0.984375 
Q 18.171875 3.328125 16.3125 8.203125 
L 10.640625 -20.796875 
L 1.609375 -20.796875 
L 10.890625 26.8125 
Q 13.09375 38.09375 18.796875 44.921875 
M 50.59375 27.296875 
Q 52.484375 37.203125 49.515625 42.875 
Q 46.53125 48.484375 39.40625 48.484375 
Q 32.28125 48.484375 27.09375 42.875 
Q 21.921875 37.203125 20.015625 27.296875 
Q 18.0625 17.390625 21.046875 11.71875 
Q 24.03125 6.109375 31.15625 6.109375 
Q 38.28125 6.109375 43.453125 11.71875 
Q 48.640625 17.390625 50.59375 27.296875 
" id="DejaVuSans-Oblique-3c1"/>
     </defs>
     <g transform="translate(546.118596 290.228819)scale(0.1 -0.1)">
      <use xlink:href="#DejaVuSans-Oblique-3c1"/>
     </g>
    </g>
    <g id="text_57">
     <!-- 1e3 -->
     <g transform="translate(614.821875 289.249132)scale(0.1 -0.1)">
      <use xlink:href="#DejaVuSans-31"/>
      <use x="63.623047" xlink:href="#DejaVuSans-65"/>
      <use x="125.146484" xlink:href="#DejaVuSans-33"/>
     </g>
    </g>
   </g>
   <g id="matplotlib.axis_12">
    <g id="ytick_26">
     <g id="line2d_53">
      <g>
       <use style="stroke:#000000;stroke-width:0.8;" x="464.937191" xlink:href="#m982616b7bc" y="261.972569"/>
      </g>
     </g>
     <g id="text_58">
      <!-- 0 -->
      <g transform="translate(451.574691 265.771788)scale(0.1 -0.1)">
       <use xlink:href="#DejaVuSans-30"/>
      </g>
     </g>
    </g>
    <g id="ytick_27">
     <g id="line2d_54">
      <g>
       <use style="stroke:#000000;stroke-width:0.8;" x="464.937191" xlink:href="#m982616b7bc" y="240.539305"/>
      </g>
     </g>
     <g id="text_59">
      <!-- 100 -->
      <g transform="translate(438.849691 244.338524)scale(0.1 -0.1)">
       <use xlink:href="#DejaVuSans-31"/>
       <use x="63.623047" xlink:href="#DejaVuSans-30"/>
       <use x="127.246094" xlink:href="#DejaVuSans-30"/>
      </g>
     </g>
    </g>
    <g id="ytick_28">
     <g id="line2d_55">
      <g>
       <use style="stroke:#000000;stroke-width:0.8;" x="464.937191" xlink:href="#m982616b7bc" y="219.106041"/>
      </g>
     </g>
     <g id="text_60">
      <!-- 200 -->
      <g transform="translate(438.849691 222.90526)scale(0.1 -0.1)">
       <use xlink:href="#DejaVuSans-32"/>
       <use x="63.623047" xlink:href="#DejaVuSans-30"/>
       <use x="127.246094" xlink:href="#DejaVuSans-30"/>
      </g>
     </g>
    </g>
    <g id="ytick_29">
     <g id="line2d_56">
      <g>
       <use style="stroke:#000000;stroke-width:0.8;" x="464.937191" xlink:href="#m982616b7bc" y="197.672777"/>
      </g>
     </g>
     <g id="text_61">
      <!-- 300 -->
      <g transform="translate(438.849691 201.471996)scale(0.1 -0.1)">
       <use xlink:href="#DejaVuSans-33"/>
       <use x="63.623047" xlink:href="#DejaVuSans-30"/>
       <use x="127.246094" xlink:href="#DejaVuSans-30"/>
      </g>
     </g>
    </g>
    <g id="ytick_30">
     <g id="line2d_57">
      <g>
       <use style="stroke:#000000;stroke-width:0.8;" x="464.937191" xlink:href="#m982616b7bc" y="176.239513"/>
      </g>
     </g>
     <g id="text_62">
      <!-- 400 -->
      <g transform="translate(438.849691 180.038732)scale(0.1 -0.1)">
       <use xlink:href="#DejaVuSans-34"/>
       <use x="63.623047" xlink:href="#DejaVuSans-30"/>
       <use x="127.246094" xlink:href="#DejaVuSans-30"/>
      </g>
     </g>
    </g>
   </g>
   <g id="line2d_58">
    <path clip-path="url(#p9e0dbfa76f)" d="M 480.929446 261.972569 
L 480.929446 160.475347 
" style="fill:none;stroke:#1f77b4;stroke-linecap:square;stroke-width:1.5;"/>
   </g>
   <g id="patch_34">
    <path d="M 464.937191 261.972569 
L 464.937191 160.475347 
" style="fill:none;stroke:#000000;stroke-linecap:square;stroke-linejoin:miter;stroke-width:0.8;"/>
   </g>
   <g id="patch_35">
    <path d="M 633.7 261.972569 
L 633.7 160.475347 
" style="fill:none;stroke:#000000;stroke-linecap:square;stroke-linejoin:miter;stroke-width:0.8;"/>
   </g>
   <g id="patch_36">
    <path d="M 464.937191 261.972569 
L 633.7 261.972569 
" style="fill:none;stroke:#000000;stroke-linecap:square;stroke-linejoin:miter;stroke-width:0.8;"/>
   </g>
   <g id="patch_37">
    <path d="M 464.937191 160.475347 
L 633.7 160.475347 
" style="fill:none;stroke:#000000;stroke-linecap:square;stroke-linejoin:miter;stroke-width:0.8;"/>
   </g>
  </g>
  <g id="axes_7">
   <g id="patch_38">
    <path d="M 36.8875 408.147917 
L 205.650309 408.147917 
L 205.650309 306.650694 
L 36.8875 306.650694 
z
" style="fill:#ffffff;"/>
   </g>
   <g id="patch_39">
    <path clip-path="url(#pf4824b132f)" d="M 44.558537 408.147917 
L 44.558537 407.27707 
L 49.672561 407.27707 
L 49.672561 408.147917 
L 54.786586 408.147917 
L 54.786586 407.27707 
L 59.90061 407.27707 
L 59.90061 407.27707 
L 65.014635 407.27707 
L 65.014635 407.27707 
L 70.128659 407.27707 
L 70.128659 408.147917 
L 75.242684 408.147917 
L 75.242684 402.922834 
L 80.356708 402.922834 
L 80.356708 403.793681 
L 85.470733 403.793681 
L 85.470733 398.568599 
L 90.584757 398.568599 
L 90.584757 391.601823 
L 95.698782 391.601823 
L 95.698782 394.214364 
L 100.812806 394.214364 
L 100.812806 379.409964 
L 105.926831 379.409964 
L 105.926831 371.572341 
L 111.040855 371.572341 
L 111.040855 350.672012 
L 116.15488 350.672012 
L 116.15488 341.092695 
L 121.268904 341.092695 
L 121.268904 330.64253 
L 126.382929 330.64253 
L 126.382929 311.483896 
L 131.496953 311.483896 
L 131.496953 323.675754 
L 136.610978 323.675754 
L 136.610978 333.255071 
L 141.725002 333.255071 
L 141.725002 350.672012 
L 146.839027 350.672012 
L 146.839027 341.963542 
L 151.953051 341.963542 
L 151.953051 358.509636 
L 157.067076 358.509636 
L 157.067076 368.9598 
L 162.1811 368.9598 
L 162.1811 382.022506 
L 167.295125 382.022506 
L 167.295125 385.505894 
L 172.409149 385.505894 
L 172.409149 394.214364 
L 177.523174 394.214364 
L 177.523174 396.826905 
L 182.637198 396.826905 
L 182.637198 402.051987 
L 187.751223 402.051987 
L 187.751223 408.147917 
L 192.865247 408.147917 
L 192.865247 406.406223 
L 197.979272 406.406223 
L 197.979272 408.147917 
L 192.865247 408.147917 
L 192.865247 408.147917 
L 187.751223 408.147917 
L 187.751223 408.147917 
L 182.637198 408.147917 
L 182.637198 408.147917 
L 177.523174 408.147917 
L 177.523174 408.147917 
L 172.409149 408.147917 
L 172.409149 408.147917 
L 167.295125 408.147917 
L 167.295125 408.147917 
L 162.1811 408.147917 
L 162.1811 408.147917 
L 157.067076 408.147917 
L 157.067076 408.147917 
L 151.953051 408.147917 
L 151.953051 408.147917 
L 146.839027 408.147917 
L 146.839027 408.147917 
L 141.725002 408.147917 
L 141.725002 408.147917 
L 136.610978 408.147917 
L 136.610978 408.147917 
L 131.496953 408.147917 
L 131.496953 408.147917 
L 126.382929 408.147917 
L 126.382929 408.147917 
L 121.268904 408.147917 
L 121.268904 408.147917 
L 116.15488 408.147917 
L 116.15488 408.147917 
L 111.040855 408.147917 
L 111.040855 408.147917 
L 105.926831 408.147917 
L 105.926831 408.147917 
L 100.812806 408.147917 
L 100.812806 408.147917 
L 95.698782 408.147917 
L 95.698782 408.147917 
L 90.584757 408.147917 
L 90.584757 408.147917 
L 85.470733 408.147917 
L 85.470733 408.147917 
L 80.356708 408.147917 
L 80.356708 408.147917 
L 75.242684 408.147917 
L 75.242684 408.147917 
L 70.128659 408.147917 
L 70.128659 408.147917 
L 65.014635 408.147917 
L 65.014635 408.147917 
L 59.90061 408.147917 
L 59.90061 408.147917 
L 54.786586 408.147917 
L 54.786586 408.147917 
L 49.672561 408.147917 
L 49.672561 408.147917 
z
" style="opacity:0.5;"/>
   </g>
   <g id="matplotlib.axis_13">
    <g id="xtick_23">
     <g id="line2d_59">
      <g>
       <use style="stroke:#000000;stroke-width:0.8;" x="82.086425" xlink:href="#mdac9d2ec14" y="408.147917"/>
      </g>
     </g>
     <g id="text_63">
      <!-- 0.5 -->
      <g transform="translate(74.134863 422.746354)scale(0.1 -0.1)">
       <use xlink:href="#DejaVuSans-30"/>
       <use x="63.623047" xlink:href="#DejaVuSans-2e"/>
       <use x="95.410156" xlink:href="#DejaVuSans-35"/>
      </g>
     </g>
    </g>
    <g id="xtick_24">
     <g id="line2d_60">
      <g>
       <use style="stroke:#000000;stroke-width:0.8;" x="132.614905" xlink:href="#mdac9d2ec14" y="408.147917"/>
      </g>
     </g>
     <g id="text_64">
      <!-- 1.0 -->
      <g transform="translate(124.663342 422.746354)scale(0.1 -0.1)">
       <use xlink:href="#DejaVuSans-31"/>
       <use x="63.623047" xlink:href="#DejaVuSans-2e"/>
       <use x="95.410156" xlink:href="#DejaVuSans-30"/>
      </g>
     </g>
    </g>
    <g id="xtick_25">
     <g id="line2d_61">
      <g>
       <use style="stroke:#000000;stroke-width:0.8;" x="183.143384" xlink:href="#mdac9d2ec14" y="408.147917"/>
      </g>
     </g>
     <g id="text_65">
      <!-- 1.5 -->
      <g transform="translate(175.191822 422.746354)scale(0.1 -0.1)">
       <use xlink:href="#DejaVuSans-31"/>
       <use x="63.623047" xlink:href="#DejaVuSans-2e"/>
       <use x="95.410156" xlink:href="#DejaVuSans-35"/>
      </g>
     </g>
    </g>
    <g id="text_66">
     <!-- $\theta_s$ -->
     <g transform="translate(116.218904 436.424479)scale(0.1 -0.1)">
      <use transform="translate(0 0.234375)" xlink:href="#DejaVuSans-Oblique-3b8"/>
      <use transform="translate(61.181641 -16.171875)scale(0.7)" xlink:href="#DejaVuSans-Oblique-73"/>
     </g>
    </g>
    <g id="text_67">
     <!-- 1e−4 -->
     <g transform="translate(178.392496 435.424479)scale(0.1 -0.1)">
      <use xlink:href="#DejaVuSans-31"/>
      <use x="63.623047" xlink:href="#DejaVuSans-65"/>
      <use x="125.146484" xlink:href="#DejaVuSans-2212"/>
      <use x="208.935547" xlink:href="#DejaVuSans-34"/>
     </g>
    </g>
   </g>
   <g id="matplotlib.axis_14">
    <g id="ytick_31">
     <g id="line2d_62">
      <g>
       <use style="stroke:#000000;stroke-width:0.8;" x="36.8875" xlink:href="#m982616b7bc" y="408.147917"/>
      </g>
     </g>
     <g id="text_68">
      <!-- 0 -->
      <g transform="translate(23.525 411.947135)scale(0.1 -0.1)">
       <use xlink:href="#DejaVuSans-30"/>
      </g>
     </g>
    </g>
    <g id="ytick_32">
     <g id="line2d_63">
      <g>
       <use style="stroke:#000000;stroke-width:0.8;" x="36.8875" xlink:href="#m982616b7bc" y="386.376741"/>
      </g>
     </g>
     <g id="text_69">
      <!-- 25 -->
      <g transform="translate(17.1625 390.175959)scale(0.1 -0.1)">
       <use xlink:href="#DejaVuSans-32"/>
       <use x="63.623047" xlink:href="#DejaVuSans-35"/>
      </g>
     </g>
    </g>
    <g id="ytick_33">
     <g id="line2d_64">
      <g>
       <use style="stroke:#000000;stroke-width:0.8;" x="36.8875" xlink:href="#m982616b7bc" y="364.605565"/>
      </g>
     </g>
     <g id="text_70">
      <!-- 50 -->
      <g transform="translate(17.1625 368.404784)scale(0.1 -0.1)">
       <use xlink:href="#DejaVuSans-35"/>
       <use x="63.623047" xlink:href="#DejaVuSans-30"/>
      </g>
     </g>
    </g>
    <g id="ytick_34">
     <g id="line2d_65">
      <g>
       <use style="stroke:#000000;stroke-width:0.8;" x="36.8875" xlink:href="#m982616b7bc" y="342.834389"/>
      </g>
     </g>
     <g id="text_71">
      <!-- 75 -->
      <g transform="translate(17.1625 346.633608)scale(0.1 -0.1)">
       <use xlink:href="#DejaVuSans-37"/>
       <use x="63.623047" xlink:href="#DejaVuSans-35"/>
      </g>
     </g>
    </g>
    <g id="ytick_35">
     <g id="line2d_66">
      <g>
       <use style="stroke:#000000;stroke-width:0.8;" x="36.8875" xlink:href="#m982616b7bc" y="321.063213"/>
      </g>
     </g>
     <g id="text_72">
      <!-- 100 -->
      <g transform="translate(10.8 324.862432)scale(0.1 -0.1)">
       <use xlink:href="#DejaVuSans-31"/>
       <use x="63.623047" xlink:href="#DejaVuSans-30"/>
       <use x="127.246094" xlink:href="#DejaVuSans-30"/>
      </g>
     </g>
    </g>
   </g>
   <g id="line2d_67">
    <path clip-path="url(#pf4824b132f)" d="M 133.882474 408.147917 
L 133.882474 306.650694 
" style="fill:none;stroke:#1f77b4;stroke-linecap:square;stroke-width:1.5;"/>
   </g>
   <g id="patch_40">
    <path d="M 36.8875 408.147917 
L 36.8875 306.650694 
" style="fill:none;stroke:#000000;stroke-linecap:square;stroke-linejoin:miter;stroke-width:0.8;"/>
   </g>
   <g id="patch_41">
    <path d="M 205.650309 408.147917 
L 205.650309 306.650694 
" style="fill:none;stroke:#000000;stroke-linecap:square;stroke-linejoin:miter;stroke-width:0.8;"/>
   </g>
   <g id="patch_42">
    <path d="M 36.8875 408.147917 
L 205.650309 408.147917 
" style="fill:none;stroke:#000000;stroke-linecap:square;stroke-linejoin:miter;stroke-width:0.8;"/>
   </g>
   <g id="patch_43">
    <path d="M 36.8875 306.650694 
L 205.650309 306.650694 
" style="fill:none;stroke:#000000;stroke-linecap:square;stroke-linejoin:miter;stroke-width:0.8;"/>
   </g>
  </g>
  <g id="axes_8">
   <g id="patch_44">
    <path d="M 250.912346 408.147917 
L 419.675154 408.147917 
L 419.675154 306.650694 
L 250.912346 306.650694 
z
" style="fill:#ffffff;"/>
   </g>
   <g id="patch_45">
    <path clip-path="url(#pa405ba2cd3)" d="M 258.583382 408.147917 
L 258.583382 405.359531 
L 263.697407 405.359531 
L 263.697407 405.359531 
L 268.811431 405.359531 
L 268.811431 408.147917 
L 273.925456 408.147917 
L 273.925456 404.43007 
L 279.03948 404.43007 
L 279.03948 399.782761 
L 284.153505 399.782761 
L 284.153505 394.205991 
L 289.267529 394.205991 
L 289.267529 382.122988 
L 294.381554 382.122988 
L 294.381554 383.05245 
L 299.495578 383.05245 
L 299.495578 362.604291 
L 304.609603 362.604291 
L 304.609603 347.732903 
L 309.723627 347.732903 
L 309.723627 344.944518 
L 314.837652 344.944518 
L 314.837652 329.143669 
L 319.951676 329.143669 
L 319.951676 311.483896 
L 325.065701 311.483896 
L 325.065701 329.143669 
L 330.179725 329.143669 
L 330.179725 319.849051 
L 335.29375 319.849051 
L 335.29375 323.566898 
L 340.407775 323.566898 
L 340.407775 337.508824 
L 345.521799 337.508824 
L 345.521799 362.604291 
L 350.635824 362.604291 
L 350.635824 362.604291 
L 355.749848 362.604291 
L 355.749848 377.475679 
L 360.863873 377.475679 
L 360.863873 379.334603 
L 365.977897 379.334603 
L 365.977897 396.064914 
L 371.091922 396.064914 
L 371.091922 399.782761 
L 376.205946 399.782761 
L 376.205946 405.359531 
L 381.319971 405.359531 
L 381.319971 405.359531 
L 386.433995 405.359531 
L 386.433995 407.218455 
L 391.54802 407.218455 
L 391.54802 408.147917 
L 396.662044 408.147917 
L 396.662044 407.218455 
L 401.776069 407.218455 
L 401.776069 408.147917 
L 406.890093 408.147917 
L 406.890093 407.218455 
L 412.004118 407.218455 
L 412.004118 408.147917 
L 406.890093 408.147917 
L 406.890093 408.147917 
L 401.776069 408.147917 
L 401.776069 408.147917 
L 396.662044 408.147917 
L 396.662044 408.147917 
L 391.54802 408.147917 
L 391.54802 408.147917 
L 386.433995 408.147917 
L 386.433995 408.147917 
L 381.319971 408.147917 
L 381.319971 408.147917 
L 376.205946 408.147917 
L 376.205946 408.147917 
L 371.091922 408.147917 
L 371.091922 408.147917 
L 365.977897 408.147917 
L 365.977897 408.147917 
L 360.863873 408.147917 
L 360.863873 408.147917 
L 355.749848 408.147917 
L 355.749848 408.147917 
L 350.635824 408.147917 
L 350.635824 408.147917 
L 345.521799 408.147917 
L 345.521799 408.147917 
L 340.407775 408.147917 
L 340.407775 408.147917 
L 335.29375 408.147917 
L 335.29375 408.147917 
L 330.179725 408.147917 
L 330.179725 408.147917 
L 325.065701 408.147917 
L 325.065701 408.147917 
L 319.951676 408.147917 
L 319.951676 408.147917 
L 314.837652 408.147917 
L 314.837652 408.147917 
L 309.723627 408.147917 
L 309.723627 408.147917 
L 304.609603 408.147917 
L 304.609603 408.147917 
L 299.495578 408.147917 
L 299.495578 408.147917 
L 294.381554 408.147917 
L 294.381554 408.147917 
L 289.267529 408.147917 
L 289.267529 408.147917 
L 284.153505 408.147917 
L 284.153505 408.147917 
L 279.03948 408.147917 
L 279.03948 408.147917 
L 273.925456 408.147917 
L 273.925456 408.147917 
L 268.811431 408.147917 
L 268.811431 408.147917 
L 263.697407 408.147917 
L 263.697407 408.147917 
z
" style="opacity:0.5;"/>
   </g>
   <g id="matplotlib.axis_15">
    <g id="xtick_26">
     <g id="line2d_68">
      <g>
       <use style="stroke:#000000;stroke-width:0.8;" x="277.513061" xlink:href="#mdac9d2ec14" y="408.147917"/>
      </g>
     </g>
     <g id="text_73">
      <!-- 0.375 -->
      <g transform="translate(263.198998 422.746354)scale(0.1 -0.1)">
       <use xlink:href="#DejaVuSans-30"/>
       <use x="63.623047" xlink:href="#DejaVuSans-2e"/>
       <use x="95.410156" xlink:href="#DejaVuSans-33"/>
       <use x="159.033203" xlink:href="#DejaVuSans-37"/>
       <use x="222.65625" xlink:href="#DejaVuSans-35"/>
      </g>
     </g>
    </g>
    <g id="xtick_27">
     <g id="line2d_69">
      <g>
       <use style="stroke:#000000;stroke-width:0.8;" x="323.735943" xlink:href="#mdac9d2ec14" y="408.147917"/>
      </g>
     </g>
     <g id="text_74">
      <!-- 0.400 -->
      <g transform="translate(309.42188 422.746354)scale(0.1 -0.1)">
       <use xlink:href="#DejaVuSans-30"/>
       <use x="63.623047" xlink:href="#DejaVuSans-2e"/>
       <use x="95.410156" xlink:href="#DejaVuSans-34"/>
       <use x="159.033203" xlink:href="#DejaVuSans-30"/>
       <use x="222.65625" xlink:href="#DejaVuSans-30"/>
      </g>
     </g>
    </g>
    <g id="xtick_28">
     <g id="line2d_70">
      <g>
       <use style="stroke:#000000;stroke-width:0.8;" x="369.958825" xlink:href="#mdac9d2ec14" y="408.147917"/>
      </g>
     </g>
     <g id="text_75">
      <!-- 0.425 -->
      <g transform="translate(355.644762 422.746354)scale(0.1 -0.1)">
       <use xlink:href="#DejaVuSans-30"/>
       <use x="63.623047" xlink:href="#DejaVuSans-2e"/>
       <use x="95.410156" xlink:href="#DejaVuSans-34"/>
       <use x="159.033203" xlink:href="#DejaVuSans-32"/>
       <use x="222.65625" xlink:href="#DejaVuSans-35"/>
      </g>
     </g>
    </g>
    <g id="xtick_29">
     <g id="line2d_71">
      <g>
       <use style="stroke:#000000;stroke-width:0.8;" x="416.181707" xlink:href="#mdac9d2ec14" y="408.147917"/>
      </g>
     </g>
     <g id="text_76">
      <!-- 0.450 -->
      <g transform="translate(401.867644 422.746354)scale(0.1 -0.1)">
       <use xlink:href="#DejaVuSans-30"/>
       <use x="63.623047" xlink:href="#DejaVuSans-2e"/>
       <use x="95.410156" xlink:href="#DejaVuSans-34"/>
       <use x="159.033203" xlink:href="#DejaVuSans-35"/>
       <use x="222.65625" xlink:href="#DejaVuSans-30"/>
      </g>
     </g>
    </g>
    <g id="text_77">
     <!-- $\rho_s$ -->
     <g transform="translate(330.14375 436.404167)scale(0.1 -0.1)">
      <use xlink:href="#DejaVuSans-Oblique-3c1"/>
      <use transform="translate(63.476562 -16.40625)scale(0.7)" xlink:href="#DejaVuSans-Oblique-73"/>
     </g>
    </g>
   </g>
   <g id="matplotlib.axis_16">
    <g id="ytick_36">
     <g id="line2d_72">
      <g>
       <use style="stroke:#000000;stroke-width:0.8;" x="250.912346" xlink:href="#m982616b7bc" y="408.147917"/>
      </g>
     </g>
     <g id="text_78">
      <!-- 0 -->
      <g transform="translate(237.549846 411.947135)scale(0.1 -0.1)">
       <use xlink:href="#DejaVuSans-30"/>
      </g>
     </g>
    </g>
    <g id="ytick_37">
     <g id="line2d_73">
      <g>
       <use style="stroke:#000000;stroke-width:0.8;" x="250.912346" xlink:href="#m982616b7bc" y="384.911373"/>
      </g>
     </g>
     <g id="text_79">
      <!-- 25 -->
      <g transform="translate(231.187346 388.710592)scale(0.1 -0.1)">
       <use xlink:href="#DejaVuSans-32"/>
       <use x="63.623047" xlink:href="#DejaVuSans-35"/>
      </g>
     </g>
    </g>
    <g id="ytick_38">
     <g id="line2d_74">
      <g>
       <use style="stroke:#000000;stroke-width:0.8;" x="250.912346" xlink:href="#m982616b7bc" y="361.67483"/>
      </g>
     </g>
     <g id="text_80">
      <!-- 50 -->
      <g transform="translate(231.187346 365.474048)scale(0.1 -0.1)">
       <use xlink:href="#DejaVuSans-35"/>
       <use x="63.623047" xlink:href="#DejaVuSans-30"/>
      </g>
     </g>
    </g>
    <g id="ytick_39">
     <g id="line2d_75">
      <g>
       <use style="stroke:#000000;stroke-width:0.8;" x="250.912346" xlink:href="#m982616b7bc" y="338.438286"/>
      </g>
     </g>
     <g id="text_81">
      <!-- 75 -->
      <g transform="translate(231.187346 342.237505)scale(0.1 -0.1)">
       <use xlink:href="#DejaVuSans-37"/>
       <use x="63.623047" xlink:href="#DejaVuSans-35"/>
      </g>
     </g>
    </g>
    <g id="ytick_40">
     <g id="line2d_76">
      <g>
       <use style="stroke:#000000;stroke-width:0.8;" x="250.912346" xlink:href="#m982616b7bc" y="315.201742"/>
      </g>
     </g>
     <g id="text_82">
      <!-- 100 -->
      <g transform="translate(224.824846 319.000961)scale(0.1 -0.1)">
       <use xlink:href="#DejaVuSans-31"/>
       <use x="63.623047" xlink:href="#DejaVuSans-30"/>
       <use x="127.246094" xlink:href="#DejaVuSans-30"/>
      </g>
     </g>
    </g>
   </g>
   <g id="line2d_77">
    <path clip-path="url(#pa405ba2cd3)" d="M 326.281331 408.147917 
L 326.281331 306.650694 
" style="fill:none;stroke:#1f77b4;stroke-linecap:square;stroke-width:1.5;"/>
   </g>
   <g id="patch_46">
    <path d="M 250.912346 408.147917 
L 250.912346 306.650694 
" style="fill:none;stroke:#000000;stroke-linecap:square;stroke-linejoin:miter;stroke-width:0.8;"/>
   </g>
   <g id="patch_47">
    <path d="M 419.675154 408.147917 
L 419.675154 306.650694 
" style="fill:none;stroke:#000000;stroke-linecap:square;stroke-linejoin:miter;stroke-width:0.8;"/>
   </g>
   <g id="patch_48">
    <path d="M 250.912346 408.147917 
L 419.675154 408.147917 
" style="fill:none;stroke:#000000;stroke-linecap:square;stroke-linejoin:miter;stroke-width:0.8;"/>
   </g>
   <g id="patch_49">
    <path d="M 250.912346 306.650694 
L 419.675154 306.650694 
" style="fill:none;stroke:#000000;stroke-linecap:square;stroke-linejoin:miter;stroke-width:0.8;"/>
   </g>
  </g>
 </g>
 <defs>
  <clipPath id="p997b579ab0">
   <rect height="101.497222" width="168.762809" x="36.8875" y="14.3"/>
  </clipPath>
  <clipPath id="p08bd910618">
   <rect height="101.497222" width="168.762809" x="250.912346" y="14.3"/>
  </clipPath>
  <clipPath id="pd5f0e20927">
   <rect height="101.497222" width="168.762809" x="464.937191" y="14.3"/>
  </clipPath>
  <clipPath id="p3fc7044df5">
   <rect height="101.497222" width="168.762809" x="36.8875" y="160.475347"/>
  </clipPath>
  <clipPath id="p6a7cd57b03">
   <rect height="101.497222" width="168.762809" x="250.912346" y="160.475347"/>
  </clipPath>
  <clipPath id="p9e0dbfa76f">
   <rect height="101.497222" width="168.762809" x="464.937191" y="160.475347"/>
  </clipPath>
  <clipPath id="pf4824b132f">
   <rect height="101.497222" width="168.762809" x="36.8875" y="306.650694"/>
  </clipPath>
  <clipPath id="pa405ba2cd3">
   <rect height="101.497222" width="168.762809" x="250.912346" y="306.650694"/>
  </clipPath>
 </defs>
</svg>
